<mxfile host="app.diagrams.net" agent="Mozilla/5.0 (Windows NT 10.0; Win64; x64) AppleWebKit/537.36 (KHTML, like Gecko) Chrome/136.0.0.0 Safari/537.36" version="27.1.1">
  <diagram id="R2lEEEUBdFMjLlhIrx00" name="Page-1">
    <mxGraphModel dx="3387" dy="2766" grid="1" gridSize="10" guides="1" tooltips="1" connect="1" arrows="1" fold="1" page="1" pageScale="1" pageWidth="850" pageHeight="1100" math="0" shadow="0" extFonts="Permanent Marker^https://fonts.googleapis.com/css?family=Permanent+Marker">
      <root>
        <mxCell id="0" />
        <mxCell id="1" parent="0" />
        <mxCell id="JOEoy0LniI57_HsHXzFs-50" style="edgeStyle=orthogonalEdgeStyle;shape=connector;rounded=0;orthogonalLoop=1;jettySize=auto;html=1;exitX=0.5;exitY=1;exitDx=0;exitDy=0;strokeColor=default;align=center;verticalAlign=middle;fontFamily=Helvetica;fontSize=11;fontColor=default;labelBackgroundColor=default;startFill=0;endArrow=none;" edge="1" parent="1" source="JOEoy0LniI57_HsHXzFs-1">
          <mxGeometry relative="1" as="geometry">
            <mxPoint x="300" y="370" as="targetPoint" />
          </mxGeometry>
        </mxCell>
        <mxCell id="JOEoy0LniI57_HsHXzFs-177" style="edgeStyle=orthogonalEdgeStyle;shape=connector;rounded=0;orthogonalLoop=1;jettySize=auto;html=1;exitX=1;exitY=0.5;exitDx=0;exitDy=0;strokeColor=default;align=center;verticalAlign=middle;fontFamily=Helvetica;fontSize=11;fontColor=default;labelBackgroundColor=default;startFill=0;endArrow=none;" edge="1" parent="1" source="JOEoy0LniI57_HsHXzFs-1">
          <mxGeometry relative="1" as="geometry">
            <mxPoint x="590" y="500" as="targetPoint" />
            <Array as="points">
              <mxPoint x="391" y="280" />
              <mxPoint x="391" y="500" />
            </Array>
          </mxGeometry>
        </mxCell>
        <mxCell id="JOEoy0LniI57_HsHXzFs-1" value="Paciente" style="whiteSpace=wrap;html=1;align=center;" vertex="1" parent="1">
          <mxGeometry x="250" y="260" width="100" height="40" as="geometry" />
        </mxCell>
        <mxCell id="JOEoy0LniI57_HsHXzFs-9" style="edgeStyle=orthogonalEdgeStyle;rounded=0;orthogonalLoop=1;jettySize=auto;html=1;exitX=1;exitY=0.5;exitDx=0;exitDy=0;entryX=0;entryY=0.5;entryDx=0;entryDy=0;endArrow=none;startFill=0;" edge="1" parent="1" target="JOEoy0LniI57_HsHXzFs-1">
          <mxGeometry relative="1" as="geometry">
            <mxPoint x="150" y="130" as="sourcePoint" />
          </mxGeometry>
        </mxCell>
        <mxCell id="JOEoy0LniI57_HsHXzFs-10" style="edgeStyle=orthogonalEdgeStyle;rounded=0;orthogonalLoop=1;jettySize=auto;html=1;exitX=1;exitY=0.5;exitDx=0;exitDy=0;entryX=0;entryY=0.5;entryDx=0;entryDy=0;endArrow=none;startFill=0;" edge="1" parent="1" source="JOEoy0LniI57_HsHXzFs-3" target="JOEoy0LniI57_HsHXzFs-1">
          <mxGeometry relative="1" as="geometry" />
        </mxCell>
        <mxCell id="JOEoy0LniI57_HsHXzFs-3" value="Nombre" style="ellipse;whiteSpace=wrap;html=1;align=center;" vertex="1" parent="1">
          <mxGeometry x="50" y="160" width="100" height="40" as="geometry" />
        </mxCell>
        <mxCell id="JOEoy0LniI57_HsHXzFs-11" style="edgeStyle=orthogonalEdgeStyle;shape=connector;rounded=0;orthogonalLoop=1;jettySize=auto;html=1;exitX=1;exitY=0.5;exitDx=0;exitDy=0;entryX=0;entryY=0.5;entryDx=0;entryDy=0;strokeColor=default;align=center;verticalAlign=middle;fontFamily=Helvetica;fontSize=11;fontColor=default;labelBackgroundColor=default;startFill=0;endArrow=none;" edge="1" parent="1" source="JOEoy0LniI57_HsHXzFs-4" target="JOEoy0LniI57_HsHXzFs-1">
          <mxGeometry relative="1" as="geometry" />
        </mxCell>
        <mxCell id="JOEoy0LniI57_HsHXzFs-4" value="Rut" style="ellipse;whiteSpace=wrap;html=1;align=center;" vertex="1" parent="1">
          <mxGeometry x="50" y="210" width="100" height="40" as="geometry" />
        </mxCell>
        <mxCell id="JOEoy0LniI57_HsHXzFs-12" value="" style="edgeStyle=orthogonalEdgeStyle;shape=connector;rounded=0;orthogonalLoop=1;jettySize=auto;html=1;strokeColor=default;align=center;verticalAlign=middle;fontFamily=Helvetica;fontSize=11;fontColor=default;labelBackgroundColor=default;startFill=0;endArrow=none;" edge="1" parent="1" source="JOEoy0LniI57_HsHXzFs-5" target="JOEoy0LniI57_HsHXzFs-1">
          <mxGeometry relative="1" as="geometry" />
        </mxCell>
        <mxCell id="JOEoy0LniI57_HsHXzFs-5" value="Fecha_nacimiento" style="ellipse;whiteSpace=wrap;html=1;align=center;" vertex="1" parent="1">
          <mxGeometry x="50" y="260" width="100" height="40" as="geometry" />
        </mxCell>
        <mxCell id="JOEoy0LniI57_HsHXzFs-14" style="edgeStyle=orthogonalEdgeStyle;shape=connector;rounded=0;orthogonalLoop=1;jettySize=auto;html=1;exitX=1;exitY=0.5;exitDx=0;exitDy=0;entryX=0;entryY=0.5;entryDx=0;entryDy=0;strokeColor=default;align=center;verticalAlign=middle;fontFamily=Helvetica;fontSize=11;fontColor=default;labelBackgroundColor=default;startFill=0;endArrow=none;" edge="1" parent="1" target="JOEoy0LniI57_HsHXzFs-1">
          <mxGeometry relative="1" as="geometry">
            <mxPoint x="150" y="330" as="sourcePoint" />
          </mxGeometry>
        </mxCell>
        <mxCell id="JOEoy0LniI57_HsHXzFs-15" style="edgeStyle=orthogonalEdgeStyle;shape=connector;rounded=0;orthogonalLoop=1;jettySize=auto;html=1;exitX=1;exitY=0.5;exitDx=0;exitDy=0;entryX=0;entryY=0.5;entryDx=0;entryDy=0;strokeColor=default;align=center;verticalAlign=middle;fontFamily=Helvetica;fontSize=11;fontColor=default;labelBackgroundColor=default;startFill=0;endArrow=none;" edge="1" parent="1" source="JOEoy0LniI57_HsHXzFs-7" target="JOEoy0LniI57_HsHXzFs-1">
          <mxGeometry relative="1" as="geometry" />
        </mxCell>
        <mxCell id="JOEoy0LniI57_HsHXzFs-7" value="Teléfono" style="ellipse;whiteSpace=wrap;html=1;align=center;" vertex="1" parent="1">
          <mxGeometry x="50" y="360" width="100" height="40" as="geometry" />
        </mxCell>
        <mxCell id="JOEoy0LniI57_HsHXzFs-16" style="edgeStyle=orthogonalEdgeStyle;shape=connector;rounded=0;orthogonalLoop=1;jettySize=auto;html=1;exitX=1;exitY=0.5;exitDx=0;exitDy=0;entryX=0;entryY=0.5;entryDx=0;entryDy=0;strokeColor=default;align=center;verticalAlign=middle;fontFamily=Helvetica;fontSize=11;fontColor=default;labelBackgroundColor=default;startFill=0;endArrow=none;" edge="1" parent="1" source="JOEoy0LniI57_HsHXzFs-8" target="JOEoy0LniI57_HsHXzFs-1">
          <mxGeometry relative="1" as="geometry" />
        </mxCell>
        <mxCell id="JOEoy0LniI57_HsHXzFs-8" value="Correo" style="ellipse;whiteSpace=wrap;html=1;align=center;" vertex="1" parent="1">
          <mxGeometry x="50" y="410" width="100" height="40" as="geometry" />
        </mxCell>
        <mxCell id="JOEoy0LniI57_HsHXzFs-17" value="ID_paciente" style="ellipse;whiteSpace=wrap;html=1;align=center;fontStyle=4;fontFamily=Helvetica;fontSize=11;fontColor=default;labelBackgroundColor=default;" vertex="1" parent="1">
          <mxGeometry x="50" y="110" width="100" height="40" as="geometry" />
        </mxCell>
        <mxCell id="JOEoy0LniI57_HsHXzFs-18" value="Dirección" style="ellipse;shape=doubleEllipse;margin=3;whiteSpace=wrap;html=1;align=center;fontFamily=Helvetica;fontSize=11;fontColor=default;labelBackgroundColor=default;" vertex="1" parent="1">
          <mxGeometry x="50" y="310" width="100" height="40" as="geometry" />
        </mxCell>
        <mxCell id="JOEoy0LniI57_HsHXzFs-23" style="edgeStyle=orthogonalEdgeStyle;shape=connector;rounded=0;orthogonalLoop=1;jettySize=auto;html=1;exitX=1;exitY=0.5;exitDx=0;exitDy=0;entryX=0;entryY=0.5;entryDx=0;entryDy=0;strokeColor=default;align=center;verticalAlign=middle;fontFamily=Helvetica;fontSize=11;fontColor=default;labelBackgroundColor=default;startFill=0;endArrow=none;" edge="1" parent="1" source="JOEoy0LniI57_HsHXzFs-19" target="JOEoy0LniI57_HsHXzFs-18">
          <mxGeometry relative="1" as="geometry" />
        </mxCell>
        <mxCell id="JOEoy0LniI57_HsHXzFs-19" value="nro" style="ellipse;whiteSpace=wrap;html=1;align=center;fontFamily=Helvetica;fontSize=11;fontColor=default;labelBackgroundColor=default;" vertex="1" parent="1">
          <mxGeometry x="-100" y="235" width="100" height="40" as="geometry" />
        </mxCell>
        <mxCell id="JOEoy0LniI57_HsHXzFs-24" style="edgeStyle=orthogonalEdgeStyle;shape=connector;rounded=0;orthogonalLoop=1;jettySize=auto;html=1;exitX=1;exitY=0.5;exitDx=0;exitDy=0;entryX=0;entryY=0.5;entryDx=0;entryDy=0;strokeColor=default;align=center;verticalAlign=middle;fontFamily=Helvetica;fontSize=11;fontColor=default;labelBackgroundColor=default;startFill=0;endArrow=none;" edge="1" parent="1" source="JOEoy0LniI57_HsHXzFs-20" target="JOEoy0LniI57_HsHXzFs-18">
          <mxGeometry relative="1" as="geometry" />
        </mxCell>
        <mxCell id="JOEoy0LniI57_HsHXzFs-20" value="Calle" style="ellipse;whiteSpace=wrap;html=1;align=center;fontFamily=Helvetica;fontSize=11;fontColor=default;labelBackgroundColor=default;" vertex="1" parent="1">
          <mxGeometry x="-100" y="285" width="100" height="40" as="geometry" />
        </mxCell>
        <mxCell id="JOEoy0LniI57_HsHXzFs-25" style="edgeStyle=orthogonalEdgeStyle;shape=connector;rounded=0;orthogonalLoop=1;jettySize=auto;html=1;exitX=1;exitY=0.5;exitDx=0;exitDy=0;entryX=0;entryY=0.5;entryDx=0;entryDy=0;strokeColor=default;align=center;verticalAlign=middle;fontFamily=Helvetica;fontSize=11;fontColor=default;labelBackgroundColor=default;startFill=0;endArrow=none;" edge="1" parent="1" source="JOEoy0LniI57_HsHXzFs-21" target="JOEoy0LniI57_HsHXzFs-18">
          <mxGeometry relative="1" as="geometry" />
        </mxCell>
        <mxCell id="JOEoy0LniI57_HsHXzFs-21" value="Comuna" style="ellipse;whiteSpace=wrap;html=1;align=center;fontFamily=Helvetica;fontSize=11;fontColor=default;labelBackgroundColor=default;" vertex="1" parent="1">
          <mxGeometry x="-100" y="335" width="100" height="40" as="geometry" />
        </mxCell>
        <mxCell id="JOEoy0LniI57_HsHXzFs-26" style="edgeStyle=orthogonalEdgeStyle;shape=connector;rounded=0;orthogonalLoop=1;jettySize=auto;html=1;exitX=1;exitY=0.5;exitDx=0;exitDy=0;entryX=0;entryY=0.5;entryDx=0;entryDy=0;strokeColor=default;align=center;verticalAlign=middle;fontFamily=Helvetica;fontSize=11;fontColor=default;labelBackgroundColor=default;startFill=0;endArrow=none;" edge="1" parent="1" source="JOEoy0LniI57_HsHXzFs-22" target="JOEoy0LniI57_HsHXzFs-18">
          <mxGeometry relative="1" as="geometry" />
        </mxCell>
        <mxCell id="JOEoy0LniI57_HsHXzFs-22" value="Ciudad" style="ellipse;whiteSpace=wrap;html=1;align=center;fontFamily=Helvetica;fontSize=11;fontColor=default;labelBackgroundColor=default;" vertex="1" parent="1">
          <mxGeometry x="-100" y="385" width="100" height="40" as="geometry" />
        </mxCell>
        <mxCell id="JOEoy0LniI57_HsHXzFs-38" style="edgeStyle=orthogonalEdgeStyle;shape=connector;rounded=0;orthogonalLoop=1;jettySize=auto;html=1;exitX=1;exitY=0.5;exitDx=0;exitDy=0;entryX=0;entryY=0.5;entryDx=0;entryDy=0;strokeColor=default;align=center;verticalAlign=middle;fontFamily=Helvetica;fontSize=11;fontColor=default;labelBackgroundColor=default;startFill=0;endArrow=none;" edge="1" parent="1" source="JOEoy0LniI57_HsHXzFs-27" target="JOEoy0LniI57_HsHXzFs-28">
          <mxGeometry relative="1" as="geometry" />
        </mxCell>
        <mxCell id="JOEoy0LniI57_HsHXzFs-209" style="edgeStyle=orthogonalEdgeStyle;shape=connector;rounded=0;orthogonalLoop=1;jettySize=auto;html=1;exitX=0.5;exitY=1;exitDx=0;exitDy=0;strokeColor=default;align=center;verticalAlign=middle;fontFamily=Helvetica;fontSize=11;fontColor=default;labelBackgroundColor=default;startFill=0;endArrow=none;" edge="1" parent="1" source="JOEoy0LniI57_HsHXzFs-27">
          <mxGeometry relative="1" as="geometry">
            <mxPoint x="690" y="160" as="targetPoint" />
            <Array as="points">
              <mxPoint x="450" y="160" />
              <mxPoint x="690" y="160" />
            </Array>
          </mxGeometry>
        </mxCell>
        <mxCell id="JOEoy0LniI57_HsHXzFs-27" value="Médico" style="whiteSpace=wrap;html=1;align=center;fontFamily=Helvetica;fontSize=11;fontColor=default;labelBackgroundColor=default;" vertex="1" parent="1">
          <mxGeometry x="400" y="100" width="100" height="40" as="geometry" />
        </mxCell>
        <mxCell id="JOEoy0LniI57_HsHXzFs-39" style="edgeStyle=orthogonalEdgeStyle;shape=connector;rounded=0;orthogonalLoop=1;jettySize=auto;html=1;exitX=1;exitY=0.5;exitDx=0;exitDy=0;entryX=0;entryY=0.5;entryDx=0;entryDy=0;strokeColor=default;align=center;verticalAlign=middle;fontFamily=Helvetica;fontSize=11;fontColor=default;labelBackgroundColor=default;startFill=0;endArrow=none;" edge="1" parent="1" source="JOEoy0LniI57_HsHXzFs-28" target="JOEoy0LniI57_HsHXzFs-29">
          <mxGeometry relative="1" as="geometry" />
        </mxCell>
        <mxCell id="JOEoy0LniI57_HsHXzFs-28" value="Tiene" style="shape=rhombus;perimeter=rhombusPerimeter;whiteSpace=wrap;html=1;align=center;fontFamily=Helvetica;fontSize=11;fontColor=default;labelBackgroundColor=default;" vertex="1" parent="1">
          <mxGeometry x="550" y="90" width="120" height="60" as="geometry" />
        </mxCell>
        <mxCell id="JOEoy0LniI57_HsHXzFs-29" value="Especialidad" style="whiteSpace=wrap;html=1;align=center;fontFamily=Helvetica;fontSize=11;fontColor=default;labelBackgroundColor=default;" vertex="1" parent="1">
          <mxGeometry x="720" y="100" width="100" height="40" as="geometry" />
        </mxCell>
        <mxCell id="JOEoy0LniI57_HsHXzFs-31" style="edgeStyle=orthogonalEdgeStyle;shape=connector;rounded=0;orthogonalLoop=1;jettySize=auto;html=1;exitX=0.5;exitY=1;exitDx=0;exitDy=0;entryX=0.5;entryY=0;entryDx=0;entryDy=0;strokeColor=default;align=center;verticalAlign=middle;fontFamily=Helvetica;fontSize=11;fontColor=default;labelBackgroundColor=default;startFill=0;endArrow=none;" edge="1" parent="1" source="JOEoy0LniI57_HsHXzFs-30" target="JOEoy0LniI57_HsHXzFs-27">
          <mxGeometry relative="1" as="geometry" />
        </mxCell>
        <mxCell id="JOEoy0LniI57_HsHXzFs-30" value="Rut" style="ellipse;whiteSpace=wrap;html=1;align=center;fontFamily=Helvetica;fontSize=11;fontColor=default;labelBackgroundColor=default;" vertex="1" parent="1">
          <mxGeometry x="455" width="100" height="40" as="geometry" />
        </mxCell>
        <mxCell id="JOEoy0LniI57_HsHXzFs-33" style="edgeStyle=orthogonalEdgeStyle;shape=connector;rounded=0;orthogonalLoop=1;jettySize=auto;html=1;exitX=0.5;exitY=1;exitDx=0;exitDy=0;strokeColor=default;align=center;verticalAlign=middle;fontFamily=Helvetica;fontSize=11;fontColor=default;labelBackgroundColor=default;startFill=0;endArrow=none;" edge="1" parent="1" source="JOEoy0LniI57_HsHXzFs-32" target="JOEoy0LniI57_HsHXzFs-27">
          <mxGeometry relative="1" as="geometry" />
        </mxCell>
        <mxCell id="JOEoy0LniI57_HsHXzFs-32" value="Nombre" style="ellipse;whiteSpace=wrap;html=1;align=center;fontFamily=Helvetica;fontSize=11;fontColor=default;labelBackgroundColor=default;" vertex="1" parent="1">
          <mxGeometry x="345" width="100" height="40" as="geometry" />
        </mxCell>
        <mxCell id="JOEoy0LniI57_HsHXzFs-35" style="edgeStyle=orthogonalEdgeStyle;shape=connector;rounded=0;orthogonalLoop=1;jettySize=auto;html=1;exitX=0.5;exitY=1;exitDx=0;exitDy=0;entryX=0.5;entryY=0;entryDx=0;entryDy=0;strokeColor=default;align=center;verticalAlign=middle;fontFamily=Helvetica;fontSize=11;fontColor=default;labelBackgroundColor=default;startFill=0;endArrow=none;" edge="1" parent="1" source="JOEoy0LniI57_HsHXzFs-34" target="JOEoy0LniI57_HsHXzFs-27">
          <mxGeometry relative="1" as="geometry" />
        </mxCell>
        <mxCell id="JOEoy0LniI57_HsHXzFs-34" value="ID_medico" style="ellipse;whiteSpace=wrap;html=1;align=center;fontStyle=4;fontFamily=Helvetica;fontSize=11;fontColor=default;labelBackgroundColor=default;" vertex="1" parent="1">
          <mxGeometry x="235" width="100" height="40" as="geometry" />
        </mxCell>
        <mxCell id="JOEoy0LniI57_HsHXzFs-37" style="edgeStyle=orthogonalEdgeStyle;shape=connector;rounded=0;orthogonalLoop=1;jettySize=auto;html=1;exitX=0.5;exitY=1;exitDx=0;exitDy=0;strokeColor=default;align=center;verticalAlign=middle;fontFamily=Helvetica;fontSize=11;fontColor=default;labelBackgroundColor=default;startFill=0;endArrow=none;" edge="1" parent="1" source="JOEoy0LniI57_HsHXzFs-36">
          <mxGeometry relative="1" as="geometry">
            <mxPoint x="450" y="100" as="targetPoint" />
          </mxGeometry>
        </mxCell>
        <mxCell id="JOEoy0LniI57_HsHXzFs-36" value="Correo" style="ellipse;whiteSpace=wrap;html=1;align=center;fontFamily=Helvetica;fontSize=11;fontColor=default;labelBackgroundColor=default;" vertex="1" parent="1">
          <mxGeometry x="565" width="100" height="40" as="geometry" />
        </mxCell>
        <mxCell id="JOEoy0LniI57_HsHXzFs-42" value="" style="edgeStyle=orthogonalEdgeStyle;shape=connector;rounded=0;orthogonalLoop=1;jettySize=auto;html=1;strokeColor=default;align=center;verticalAlign=middle;fontFamily=Helvetica;fontSize=11;fontColor=default;labelBackgroundColor=default;startFill=0;endArrow=none;" edge="1" parent="1" source="JOEoy0LniI57_HsHXzFs-40" target="JOEoy0LniI57_HsHXzFs-29">
          <mxGeometry relative="1" as="geometry" />
        </mxCell>
        <mxCell id="JOEoy0LniI57_HsHXzFs-44" value="" style="edgeStyle=orthogonalEdgeStyle;shape=connector;rounded=0;orthogonalLoop=1;jettySize=auto;html=1;strokeColor=default;align=center;verticalAlign=middle;fontFamily=Helvetica;fontSize=11;fontColor=default;labelBackgroundColor=default;startFill=0;endArrow=none;" edge="1" parent="1" source="JOEoy0LniI57_HsHXzFs-40" target="JOEoy0LniI57_HsHXzFs-29">
          <mxGeometry relative="1" as="geometry" />
        </mxCell>
        <mxCell id="JOEoy0LniI57_HsHXzFs-40" value="Nombre" style="ellipse;whiteSpace=wrap;html=1;align=center;fontFamily=Helvetica;fontSize=11;fontColor=default;labelBackgroundColor=default;" vertex="1" parent="1">
          <mxGeometry x="890" y="70" width="100" height="40" as="geometry" />
        </mxCell>
        <mxCell id="JOEoy0LniI57_HsHXzFs-45" value="" style="edgeStyle=orthogonalEdgeStyle;shape=connector;rounded=0;orthogonalLoop=1;jettySize=auto;html=1;strokeColor=default;align=center;verticalAlign=middle;fontFamily=Helvetica;fontSize=11;fontColor=default;labelBackgroundColor=default;startFill=0;endArrow=none;" edge="1" parent="1" source="JOEoy0LniI57_HsHXzFs-43" target="JOEoy0LniI57_HsHXzFs-29">
          <mxGeometry relative="1" as="geometry" />
        </mxCell>
        <mxCell id="JOEoy0LniI57_HsHXzFs-43" value="ID_especialidad" style="ellipse;whiteSpace=wrap;html=1;align=center;fontStyle=4;fontFamily=Helvetica;fontSize=11;fontColor=default;labelBackgroundColor=default;" vertex="1" parent="1">
          <mxGeometry x="890" y="130" width="100" height="40" as="geometry" />
        </mxCell>
        <mxCell id="JOEoy0LniI57_HsHXzFs-47" value="" style="edgeStyle=orthogonalEdgeStyle;shape=connector;rounded=0;orthogonalLoop=1;jettySize=auto;html=1;strokeColor=default;align=center;verticalAlign=middle;fontFamily=Helvetica;fontSize=11;fontColor=default;labelBackgroundColor=default;startFill=0;endArrow=none;" edge="1" parent="1" source="JOEoy0LniI57_HsHXzFs-46" target="JOEoy0LniI57_HsHXzFs-27">
          <mxGeometry relative="1" as="geometry" />
        </mxCell>
        <mxCell id="JOEoy0LniI57_HsHXzFs-48" value="" style="edgeStyle=orthogonalEdgeStyle;shape=connector;rounded=0;orthogonalLoop=1;jettySize=auto;html=1;strokeColor=default;align=center;verticalAlign=middle;fontFamily=Helvetica;fontSize=11;fontColor=default;labelBackgroundColor=default;startFill=0;endArrow=none;" edge="1" parent="1" source="JOEoy0LniI57_HsHXzFs-46" target="JOEoy0LniI57_HsHXzFs-1">
          <mxGeometry relative="1" as="geometry" />
        </mxCell>
        <mxCell id="JOEoy0LniI57_HsHXzFs-46" value="Atiende" style="shape=rhombus;perimeter=rhombusPerimeter;whiteSpace=wrap;html=1;align=center;fontFamily=Helvetica;fontSize=11;fontColor=default;labelBackgroundColor=default;" vertex="1" parent="1">
          <mxGeometry x="240" y="90" width="120" height="60" as="geometry" />
        </mxCell>
        <mxCell id="JOEoy0LniI57_HsHXzFs-53" value="" style="edgeStyle=orthogonalEdgeStyle;shape=connector;rounded=0;orthogonalLoop=1;jettySize=auto;html=1;strokeColor=default;align=center;verticalAlign=middle;fontFamily=Helvetica;fontSize=11;fontColor=default;labelBackgroundColor=default;startFill=0;endArrow=none;" edge="1" parent="1" source="JOEoy0LniI57_HsHXzFs-49" target="JOEoy0LniI57_HsHXzFs-51">
          <mxGeometry relative="1" as="geometry" />
        </mxCell>
        <mxCell id="JOEoy0LniI57_HsHXzFs-225" style="edgeStyle=orthogonalEdgeStyle;shape=connector;rounded=0;orthogonalLoop=1;jettySize=auto;html=1;exitX=1;exitY=0.5;exitDx=0;exitDy=0;strokeColor=default;align=center;verticalAlign=middle;fontFamily=Helvetica;fontSize=11;fontColor=default;labelBackgroundColor=default;startFill=0;endArrow=none;" edge="1" parent="1" source="JOEoy0LniI57_HsHXzFs-49">
          <mxGeometry relative="1" as="geometry">
            <mxPoint x="380" y="860" as="targetPoint" />
          </mxGeometry>
        </mxCell>
        <mxCell id="JOEoy0LniI57_HsHXzFs-49" value="Cita_médica" style="whiteSpace=wrap;html=1;align=center;fontFamily=Helvetica;fontSize=11;fontColor=default;labelBackgroundColor=default;" vertex="1" parent="1">
          <mxGeometry x="250" y="580" width="100" height="40" as="geometry" />
        </mxCell>
        <mxCell id="JOEoy0LniI57_HsHXzFs-52" value="" style="edgeStyle=orthogonalEdgeStyle;shape=connector;rounded=0;orthogonalLoop=1;jettySize=auto;html=1;strokeColor=default;align=center;verticalAlign=middle;fontFamily=Helvetica;fontSize=11;fontColor=default;labelBackgroundColor=default;startFill=0;endArrow=none;" edge="1" parent="1" source="JOEoy0LniI57_HsHXzFs-51" target="JOEoy0LniI57_HsHXzFs-1">
          <mxGeometry relative="1" as="geometry" />
        </mxCell>
        <mxCell id="JOEoy0LniI57_HsHXzFs-51" value="Tiene" style="shape=rhombus;perimeter=rhombusPerimeter;whiteSpace=wrap;html=1;align=center;fontFamily=Helvetica;fontSize=11;fontColor=default;labelBackgroundColor=default;" vertex="1" parent="1">
          <mxGeometry x="240" y="410" width="120" height="60" as="geometry" />
        </mxCell>
        <mxCell id="JOEoy0LniI57_HsHXzFs-63" style="edgeStyle=orthogonalEdgeStyle;shape=connector;rounded=0;orthogonalLoop=1;jettySize=auto;html=1;exitX=1;exitY=0.5;exitDx=0;exitDy=0;entryX=0;entryY=0.5;entryDx=0;entryDy=0;strokeColor=default;align=center;verticalAlign=middle;fontFamily=Helvetica;fontSize=11;fontColor=default;labelBackgroundColor=default;startFill=0;endArrow=none;" edge="1" parent="1" source="JOEoy0LniI57_HsHXzFs-54" target="JOEoy0LniI57_HsHXzFs-49">
          <mxGeometry relative="1" as="geometry" />
        </mxCell>
        <mxCell id="JOEoy0LniI57_HsHXzFs-54" value="Fecha" style="ellipse;whiteSpace=wrap;html=1;align=center;fontFamily=Helvetica;fontSize=11;fontColor=default;labelBackgroundColor=default;" vertex="1" parent="1">
          <mxGeometry x="50" y="510" width="100" height="40" as="geometry" />
        </mxCell>
        <mxCell id="JOEoy0LniI57_HsHXzFs-62" style="edgeStyle=orthogonalEdgeStyle;shape=connector;rounded=0;orthogonalLoop=1;jettySize=auto;html=1;exitX=1;exitY=0.5;exitDx=0;exitDy=0;entryX=0;entryY=0.5;entryDx=0;entryDy=0;strokeColor=default;align=center;verticalAlign=middle;fontFamily=Helvetica;fontSize=11;fontColor=default;labelBackgroundColor=default;startFill=0;endArrow=none;" edge="1" parent="1" source="JOEoy0LniI57_HsHXzFs-55" target="JOEoy0LniI57_HsHXzFs-49">
          <mxGeometry relative="1" as="geometry" />
        </mxCell>
        <mxCell id="JOEoy0LniI57_HsHXzFs-55" value="ID_cita" style="ellipse;whiteSpace=wrap;html=1;align=center;fontStyle=4;fontFamily=Helvetica;fontSize=11;fontColor=default;labelBackgroundColor=default;" vertex="1" parent="1">
          <mxGeometry x="50" y="460" width="100" height="40" as="geometry" />
        </mxCell>
        <mxCell id="JOEoy0LniI57_HsHXzFs-64" style="edgeStyle=orthogonalEdgeStyle;shape=connector;rounded=0;orthogonalLoop=1;jettySize=auto;html=1;exitX=1;exitY=0.5;exitDx=0;exitDy=0;entryX=0;entryY=0.5;entryDx=0;entryDy=0;strokeColor=default;align=center;verticalAlign=middle;fontFamily=Helvetica;fontSize=11;fontColor=default;labelBackgroundColor=default;startFill=0;endArrow=none;" edge="1" parent="1" source="JOEoy0LniI57_HsHXzFs-58" target="JOEoy0LniI57_HsHXzFs-49">
          <mxGeometry relative="1" as="geometry" />
        </mxCell>
        <mxCell id="JOEoy0LniI57_HsHXzFs-58" value="Hora" style="ellipse;whiteSpace=wrap;html=1;align=center;fontFamily=Helvetica;fontSize=11;fontColor=default;labelBackgroundColor=default;" vertex="1" parent="1">
          <mxGeometry x="50" y="560" width="100" height="40" as="geometry" />
        </mxCell>
        <mxCell id="JOEoy0LniI57_HsHXzFs-65" style="edgeStyle=orthogonalEdgeStyle;shape=connector;rounded=0;orthogonalLoop=1;jettySize=auto;html=1;exitX=1;exitY=0.5;exitDx=0;exitDy=0;entryX=0;entryY=0.5;entryDx=0;entryDy=0;strokeColor=default;align=center;verticalAlign=middle;fontFamily=Helvetica;fontSize=11;fontColor=default;labelBackgroundColor=default;startFill=0;endArrow=none;" edge="1" parent="1" source="JOEoy0LniI57_HsHXzFs-59" target="JOEoy0LniI57_HsHXzFs-49">
          <mxGeometry relative="1" as="geometry" />
        </mxCell>
        <mxCell id="JOEoy0LniI57_HsHXzFs-59" value="Motivo" style="ellipse;whiteSpace=wrap;html=1;align=center;fontFamily=Helvetica;fontSize=11;fontColor=default;labelBackgroundColor=default;" vertex="1" parent="1">
          <mxGeometry x="50" y="610" width="100" height="40" as="geometry" />
        </mxCell>
        <mxCell id="JOEoy0LniI57_HsHXzFs-66" style="edgeStyle=orthogonalEdgeStyle;shape=connector;rounded=0;orthogonalLoop=1;jettySize=auto;html=1;exitX=1;exitY=0.5;exitDx=0;exitDy=0;entryX=0;entryY=0.5;entryDx=0;entryDy=0;strokeColor=default;align=center;verticalAlign=middle;fontFamily=Helvetica;fontSize=11;fontColor=default;labelBackgroundColor=default;startFill=0;endArrow=none;" edge="1" parent="1" source="JOEoy0LniI57_HsHXzFs-60" target="JOEoy0LniI57_HsHXzFs-49">
          <mxGeometry relative="1" as="geometry" />
        </mxCell>
        <mxCell id="JOEoy0LniI57_HsHXzFs-60" value="ID_paciente" style="ellipse;whiteSpace=wrap;html=1;align=center;fontFamily=Helvetica;fontSize=11;fontColor=default;labelBackgroundColor=default;" vertex="1" parent="1">
          <mxGeometry x="50" y="660" width="100" height="40" as="geometry" />
        </mxCell>
        <mxCell id="JOEoy0LniI57_HsHXzFs-67" style="edgeStyle=orthogonalEdgeStyle;shape=connector;rounded=0;orthogonalLoop=1;jettySize=auto;html=1;exitX=1;exitY=0.5;exitDx=0;exitDy=0;entryX=0;entryY=0.5;entryDx=0;entryDy=0;strokeColor=default;align=center;verticalAlign=middle;fontFamily=Helvetica;fontSize=11;fontColor=default;labelBackgroundColor=default;startFill=0;endArrow=none;" edge="1" parent="1" source="JOEoy0LniI57_HsHXzFs-61" target="JOEoy0LniI57_HsHXzFs-49">
          <mxGeometry relative="1" as="geometry" />
        </mxCell>
        <mxCell id="JOEoy0LniI57_HsHXzFs-61" value="ID_médico" style="ellipse;whiteSpace=wrap;html=1;align=center;fontFamily=Helvetica;fontSize=11;fontColor=default;labelBackgroundColor=default;" vertex="1" parent="1">
          <mxGeometry x="50" y="710" width="100" height="40" as="geometry" />
        </mxCell>
        <mxCell id="JOEoy0LniI57_HsHXzFs-143" style="edgeStyle=orthogonalEdgeStyle;shape=connector;rounded=0;orthogonalLoop=1;jettySize=auto;html=1;exitX=1;exitY=0.5;exitDx=0;exitDy=0;entryX=0;entryY=0.5;entryDx=0;entryDy=0;strokeColor=default;align=center;verticalAlign=middle;fontFamily=Helvetica;fontSize=11;fontColor=default;labelBackgroundColor=default;startFill=0;endArrow=none;" edge="1" parent="1" source="JOEoy0LniI57_HsHXzFs-70" target="JOEoy0LniI57_HsHXzFs-138">
          <mxGeometry relative="1" as="geometry" />
        </mxCell>
        <mxCell id="JOEoy0LniI57_HsHXzFs-70" value="Mes" style="ellipse;whiteSpace=wrap;html=1;align=center;fontFamily=Helvetica;fontSize=11;fontColor=default;labelBackgroundColor=default;" vertex="1" parent="1">
          <mxGeometry x="-340" y="30" width="100" height="40" as="geometry" />
        </mxCell>
        <mxCell id="JOEoy0LniI57_HsHXzFs-144" style="edgeStyle=orthogonalEdgeStyle;shape=connector;rounded=0;orthogonalLoop=1;jettySize=auto;html=1;exitX=1;exitY=0.5;exitDx=0;exitDy=0;entryX=0;entryY=0.5;entryDx=0;entryDy=0;strokeColor=default;align=center;verticalAlign=middle;fontFamily=Helvetica;fontSize=11;fontColor=default;labelBackgroundColor=default;startFill=0;endArrow=none;" edge="1" parent="1" source="JOEoy0LniI57_HsHXzFs-71" target="JOEoy0LniI57_HsHXzFs-138">
          <mxGeometry relative="1" as="geometry" />
        </mxCell>
        <mxCell id="JOEoy0LniI57_HsHXzFs-71" value="Año" style="ellipse;whiteSpace=wrap;html=1;align=center;fontFamily=Helvetica;fontSize=11;fontColor=default;labelBackgroundColor=default;" vertex="1" parent="1">
          <mxGeometry x="-340" y="80" width="100" height="40" as="geometry" />
        </mxCell>
        <mxCell id="JOEoy0LniI57_HsHXzFs-145" style="edgeStyle=orthogonalEdgeStyle;shape=connector;rounded=0;orthogonalLoop=1;jettySize=auto;html=1;exitX=1;exitY=0.5;exitDx=0;exitDy=0;entryX=0;entryY=0.5;entryDx=0;entryDy=0;strokeColor=default;align=center;verticalAlign=middle;fontFamily=Helvetica;fontSize=11;fontColor=default;labelBackgroundColor=default;startFill=0;endArrow=none;" edge="1" parent="1" source="JOEoy0LniI57_HsHXzFs-72" target="JOEoy0LniI57_HsHXzFs-138">
          <mxGeometry relative="1" as="geometry" />
        </mxCell>
        <mxCell id="JOEoy0LniI57_HsHXzFs-72" value="Hora" style="ellipse;whiteSpace=wrap;html=1;align=center;fontFamily=Helvetica;fontSize=11;fontColor=default;labelBackgroundColor=default;" vertex="1" parent="1">
          <mxGeometry x="-340" y="130" width="100" height="40" as="geometry" />
        </mxCell>
        <mxCell id="JOEoy0LniI57_HsHXzFs-142" style="edgeStyle=orthogonalEdgeStyle;shape=connector;rounded=0;orthogonalLoop=1;jettySize=auto;html=1;exitX=1;exitY=0.5;exitDx=0;exitDy=0;entryX=0;entryY=0.5;entryDx=0;entryDy=0;strokeColor=default;align=center;verticalAlign=middle;fontFamily=Helvetica;fontSize=11;fontColor=default;labelBackgroundColor=default;startFill=0;endArrow=none;" edge="1" parent="1" source="JOEoy0LniI57_HsHXzFs-78" target="JOEoy0LniI57_HsHXzFs-138">
          <mxGeometry relative="1" as="geometry" />
        </mxCell>
        <mxCell id="JOEoy0LniI57_HsHXzFs-78" value="&lt;span style=&quot;border-bottom: 1px dotted&quot;&gt;Día&lt;/span&gt;" style="ellipse;whiteSpace=wrap;html=1;align=center;fontFamily=Helvetica;fontSize=11;fontColor=default;labelBackgroundColor=default;" vertex="1" parent="1">
          <mxGeometry x="-340" y="-20" width="100" height="40" as="geometry" />
        </mxCell>
        <mxCell id="JOEoy0LniI57_HsHXzFs-103" value="" style="edgeStyle=orthogonalEdgeStyle;shape=connector;rounded=0;orthogonalLoop=1;jettySize=auto;html=1;strokeColor=default;align=center;verticalAlign=middle;fontFamily=Helvetica;fontSize=11;fontColor=default;labelBackgroundColor=default;startFill=0;endArrow=none;" edge="1" parent="1" source="JOEoy0LniI57_HsHXzFs-80" target="JOEoy0LniI57_HsHXzFs-102">
          <mxGeometry relative="1" as="geometry" />
        </mxCell>
        <mxCell id="JOEoy0LniI57_HsHXzFs-80" value="Diagnóstico" style="whiteSpace=wrap;html=1;align=center;fontFamily=Helvetica;fontSize=11;fontColor=default;labelBackgroundColor=default;" vertex="1" parent="1">
          <mxGeometry x="250" y="870" width="100" height="40" as="geometry" />
        </mxCell>
        <mxCell id="JOEoy0LniI57_HsHXzFs-82" value="" style="edgeStyle=orthogonalEdgeStyle;shape=connector;rounded=0;orthogonalLoop=1;jettySize=auto;html=1;strokeColor=default;align=center;verticalAlign=middle;fontFamily=Helvetica;fontSize=11;fontColor=default;labelBackgroundColor=default;startFill=0;endArrow=none;" edge="1" parent="1" source="JOEoy0LniI57_HsHXzFs-81" target="JOEoy0LniI57_HsHXzFs-49">
          <mxGeometry relative="1" as="geometry" />
        </mxCell>
        <mxCell id="JOEoy0LniI57_HsHXzFs-83" value="" style="edgeStyle=orthogonalEdgeStyle;shape=connector;rounded=0;orthogonalLoop=1;jettySize=auto;html=1;strokeColor=default;align=center;verticalAlign=middle;fontFamily=Helvetica;fontSize=11;fontColor=default;labelBackgroundColor=default;startFill=0;endArrow=none;" edge="1" parent="1" source="JOEoy0LniI57_HsHXzFs-81" target="JOEoy0LniI57_HsHXzFs-80">
          <mxGeometry relative="1" as="geometry" />
        </mxCell>
        <mxCell id="JOEoy0LniI57_HsHXzFs-81" value="Genera" style="shape=rhombus;perimeter=rhombusPerimeter;whiteSpace=wrap;html=1;align=center;fontFamily=Helvetica;fontSize=11;fontColor=default;labelBackgroundColor=default;" vertex="1" parent="1">
          <mxGeometry x="240" y="720" width="120" height="60" as="geometry" />
        </mxCell>
        <mxCell id="JOEoy0LniI57_HsHXzFs-88" style="edgeStyle=orthogonalEdgeStyle;shape=connector;rounded=0;orthogonalLoop=1;jettySize=auto;html=1;exitX=1;exitY=0.5;exitDx=0;exitDy=0;entryX=0;entryY=0.5;entryDx=0;entryDy=0;strokeColor=default;align=center;verticalAlign=middle;fontFamily=Helvetica;fontSize=11;fontColor=default;labelBackgroundColor=default;startFill=0;endArrow=none;" edge="1" parent="1" source="JOEoy0LniI57_HsHXzFs-84" target="JOEoy0LniI57_HsHXzFs-80">
          <mxGeometry relative="1" as="geometry" />
        </mxCell>
        <mxCell id="JOEoy0LniI57_HsHXzFs-84" value="ID_diagnostico" style="ellipse;whiteSpace=wrap;html=1;align=center;fontStyle=4;fontFamily=Helvetica;fontSize=11;fontColor=default;labelBackgroundColor=default;" vertex="1" parent="1">
          <mxGeometry x="50" y="795" width="100" height="40" as="geometry" />
        </mxCell>
        <mxCell id="JOEoy0LniI57_HsHXzFs-89" style="edgeStyle=orthogonalEdgeStyle;shape=connector;rounded=0;orthogonalLoop=1;jettySize=auto;html=1;exitX=1;exitY=0.5;exitDx=0;exitDy=0;entryX=0;entryY=0.5;entryDx=0;entryDy=0;strokeColor=default;align=center;verticalAlign=middle;fontFamily=Helvetica;fontSize=11;fontColor=default;labelBackgroundColor=default;startFill=0;endArrow=none;" edge="1" parent="1" source="JOEoy0LniI57_HsHXzFs-85" target="JOEoy0LniI57_HsHXzFs-80">
          <mxGeometry relative="1" as="geometry" />
        </mxCell>
        <mxCell id="JOEoy0LniI57_HsHXzFs-85" value="Descripción" style="ellipse;whiteSpace=wrap;html=1;align=center;fontFamily=Helvetica;fontSize=11;fontColor=default;labelBackgroundColor=default;" vertex="1" parent="1">
          <mxGeometry x="50" y="845" width="100" height="40" as="geometry" />
        </mxCell>
        <mxCell id="JOEoy0LniI57_HsHXzFs-90" style="edgeStyle=orthogonalEdgeStyle;shape=connector;rounded=0;orthogonalLoop=1;jettySize=auto;html=1;exitX=1;exitY=0.5;exitDx=0;exitDy=0;entryX=0;entryY=0.5;entryDx=0;entryDy=0;strokeColor=default;align=center;verticalAlign=middle;fontFamily=Helvetica;fontSize=11;fontColor=default;labelBackgroundColor=default;startFill=0;endArrow=none;" edge="1" parent="1" source="JOEoy0LniI57_HsHXzFs-86" target="JOEoy0LniI57_HsHXzFs-80">
          <mxGeometry relative="1" as="geometry" />
        </mxCell>
        <mxCell id="JOEoy0LniI57_HsHXzFs-86" value="Fecha" style="ellipse;whiteSpace=wrap;html=1;align=center;fontFamily=Helvetica;fontSize=11;fontColor=default;labelBackgroundColor=default;" vertex="1" parent="1">
          <mxGeometry x="50" y="895" width="100" height="40" as="geometry" />
        </mxCell>
        <mxCell id="JOEoy0LniI57_HsHXzFs-91" style="edgeStyle=orthogonalEdgeStyle;shape=connector;rounded=0;orthogonalLoop=1;jettySize=auto;html=1;exitX=1;exitY=0.5;exitDx=0;exitDy=0;entryX=0;entryY=0.5;entryDx=0;entryDy=0;strokeColor=default;align=center;verticalAlign=middle;fontFamily=Helvetica;fontSize=11;fontColor=default;labelBackgroundColor=default;startFill=0;endArrow=none;" edge="1" parent="1" source="JOEoy0LniI57_HsHXzFs-87" target="JOEoy0LniI57_HsHXzFs-80">
          <mxGeometry relative="1" as="geometry" />
        </mxCell>
        <mxCell id="JOEoy0LniI57_HsHXzFs-87" value="ID_cita" style="ellipse;whiteSpace=wrap;html=1;align=center;fontFamily=Helvetica;fontSize=11;fontColor=default;labelBackgroundColor=default;" vertex="1" parent="1">
          <mxGeometry x="50" y="945" width="100" height="40" as="geometry" />
        </mxCell>
        <mxCell id="JOEoy0LniI57_HsHXzFs-101" value="Receta" style="whiteSpace=wrap;html=1;align=center;fontFamily=Helvetica;fontSize=11;fontColor=default;labelBackgroundColor=default;" vertex="1" parent="1">
          <mxGeometry x="570" y="870" width="100" height="40" as="geometry" />
        </mxCell>
        <mxCell id="JOEoy0LniI57_HsHXzFs-104" value="" style="edgeStyle=orthogonalEdgeStyle;shape=connector;rounded=0;orthogonalLoop=1;jettySize=auto;html=1;strokeColor=default;align=center;verticalAlign=middle;fontFamily=Helvetica;fontSize=11;fontColor=default;labelBackgroundColor=default;startFill=0;endArrow=none;" edge="1" parent="1" source="JOEoy0LniI57_HsHXzFs-102" target="JOEoy0LniI57_HsHXzFs-101">
          <mxGeometry relative="1" as="geometry" />
        </mxCell>
        <mxCell id="JOEoy0LniI57_HsHXzFs-102" value="Tiene" style="shape=rhombus;perimeter=rhombusPerimeter;whiteSpace=wrap;html=1;align=center;fontFamily=Helvetica;fontSize=11;fontColor=default;labelBackgroundColor=default;" vertex="1" parent="1">
          <mxGeometry x="400" y="860" width="120" height="60" as="geometry" />
        </mxCell>
        <mxCell id="JOEoy0LniI57_HsHXzFs-111" value="" style="edgeStyle=orthogonalEdgeStyle;shape=connector;rounded=0;orthogonalLoop=1;jettySize=auto;html=1;strokeColor=default;align=center;verticalAlign=middle;fontFamily=Helvetica;fontSize=11;fontColor=default;labelBackgroundColor=default;startFill=0;endArrow=none;" edge="1" parent="1" source="JOEoy0LniI57_HsHXzFs-105" target="JOEoy0LniI57_HsHXzFs-101">
          <mxGeometry relative="1" as="geometry" />
        </mxCell>
        <mxCell id="JOEoy0LniI57_HsHXzFs-105" value="Fecha" style="ellipse;whiteSpace=wrap;html=1;align=center;fontFamily=Helvetica;fontSize=11;fontColor=default;labelBackgroundColor=default;" vertex="1" parent="1">
          <mxGeometry x="570" y="970" width="100" height="40" as="geometry" />
        </mxCell>
        <mxCell id="JOEoy0LniI57_HsHXzFs-114" style="edgeStyle=orthogonalEdgeStyle;shape=connector;rounded=0;orthogonalLoop=1;jettySize=auto;html=1;exitX=0.5;exitY=0;exitDx=0;exitDy=0;entryX=0.5;entryY=1;entryDx=0;entryDy=0;strokeColor=default;align=center;verticalAlign=middle;fontFamily=Helvetica;fontSize=11;fontColor=default;labelBackgroundColor=default;startFill=0;endArrow=none;" edge="1" parent="1" source="JOEoy0LniI57_HsHXzFs-106" target="JOEoy0LniI57_HsHXzFs-101">
          <mxGeometry relative="1" as="geometry" />
        </mxCell>
        <mxCell id="JOEoy0LniI57_HsHXzFs-106" value="ID_receta" style="ellipse;whiteSpace=wrap;html=1;align=center;fontStyle=4;fontFamily=Helvetica;fontSize=11;fontColor=default;labelBackgroundColor=default;" vertex="1" parent="1">
          <mxGeometry x="460" y="970" width="100" height="40" as="geometry" />
        </mxCell>
        <mxCell id="JOEoy0LniI57_HsHXzFs-115" style="edgeStyle=orthogonalEdgeStyle;shape=connector;rounded=0;orthogonalLoop=1;jettySize=auto;html=1;exitX=0.5;exitY=0;exitDx=0;exitDy=0;entryX=0.5;entryY=1;entryDx=0;entryDy=0;strokeColor=default;align=center;verticalAlign=middle;fontFamily=Helvetica;fontSize=11;fontColor=default;labelBackgroundColor=default;startFill=0;endArrow=none;" edge="1" parent="1" source="JOEoy0LniI57_HsHXzFs-107" target="JOEoy0LniI57_HsHXzFs-101">
          <mxGeometry relative="1" as="geometry" />
        </mxCell>
        <mxCell id="JOEoy0LniI57_HsHXzFs-107" value="ID_diagnostico" style="ellipse;whiteSpace=wrap;html=1;align=center;fontFamily=Helvetica;fontSize=11;fontColor=default;labelBackgroundColor=default;" vertex="1" parent="1">
          <mxGeometry x="680" y="970" width="100" height="40" as="geometry" />
        </mxCell>
        <mxCell id="JOEoy0LniI57_HsHXzFs-152" style="edgeStyle=orthogonalEdgeStyle;shape=connector;rounded=0;orthogonalLoop=1;jettySize=auto;html=1;exitX=0.5;exitY=0;exitDx=0;exitDy=0;entryX=0.5;entryY=1;entryDx=0;entryDy=0;strokeColor=default;align=center;verticalAlign=middle;fontFamily=Helvetica;fontSize=11;fontColor=default;labelBackgroundColor=default;startFill=0;endArrow=none;" edge="1" parent="1" source="JOEoy0LniI57_HsHXzFs-126" target="JOEoy0LniI57_HsHXzFs-150">
          <mxGeometry relative="1" as="geometry" />
        </mxCell>
        <mxCell id="JOEoy0LniI57_HsHXzFs-126" value="Receta" style="whiteSpace=wrap;html=1;align=center;fontFamily=Helvetica;fontSize=11;fontColor=default;labelBackgroundColor=default;" vertex="1" parent="1">
          <mxGeometry x="570" y="580" width="100" height="40" as="geometry" />
        </mxCell>
        <mxCell id="JOEoy0LniI57_HsHXzFs-130" value="" style="edgeStyle=orthogonalEdgeStyle;shape=connector;rounded=0;orthogonalLoop=1;jettySize=auto;html=1;strokeColor=default;align=center;verticalAlign=middle;fontFamily=Helvetica;fontSize=11;fontColor=default;labelBackgroundColor=default;startFill=0;endArrow=none;" edge="1" parent="1" source="JOEoy0LniI57_HsHXzFs-129" target="JOEoy0LniI57_HsHXzFs-126">
          <mxGeometry relative="1" as="geometry" />
        </mxCell>
        <mxCell id="JOEoy0LniI57_HsHXzFs-131" value="" style="edgeStyle=orthogonalEdgeStyle;shape=connector;rounded=0;orthogonalLoop=1;jettySize=auto;html=1;strokeColor=default;align=center;verticalAlign=middle;fontFamily=Helvetica;fontSize=11;fontColor=default;labelBackgroundColor=default;startFill=0;endArrow=none;" edge="1" parent="1" source="JOEoy0LniI57_HsHXzFs-129" target="JOEoy0LniI57_HsHXzFs-101">
          <mxGeometry relative="1" as="geometry" />
        </mxCell>
        <mxCell id="JOEoy0LniI57_HsHXzFs-129" value="Tiene" style="shape=rhombus;perimeter=rhombusPerimeter;whiteSpace=wrap;html=1;align=center;fontFamily=Helvetica;fontSize=11;fontColor=default;labelBackgroundColor=default;" vertex="1" parent="1">
          <mxGeometry x="560" y="710" width="120" height="60" as="geometry" />
        </mxCell>
        <mxCell id="JOEoy0LniI57_HsHXzFs-133" style="edgeStyle=orthogonalEdgeStyle;shape=connector;rounded=0;orthogonalLoop=1;jettySize=auto;html=1;exitX=1;exitY=0.5;exitDx=0;exitDy=0;entryX=0;entryY=0.5;entryDx=0;entryDy=0;strokeColor=default;align=center;verticalAlign=middle;fontFamily=Helvetica;fontSize=11;fontColor=default;labelBackgroundColor=default;startFill=0;endArrow=none;" edge="1" parent="1" source="JOEoy0LniI57_HsHXzFs-132" target="JOEoy0LniI57_HsHXzFs-126">
          <mxGeometry relative="1" as="geometry" />
        </mxCell>
        <mxCell id="JOEoy0LniI57_HsHXzFs-132" value="ID_receta" style="ellipse;whiteSpace=wrap;html=1;align=center;fontStyle=4;fontFamily=Helvetica;fontSize=11;fontColor=default;labelBackgroundColor=default;" vertex="1" parent="1">
          <mxGeometry x="410" y="530" width="100" height="40" as="geometry" />
        </mxCell>
        <mxCell id="JOEoy0LniI57_HsHXzFs-135" value="" style="edgeStyle=orthogonalEdgeStyle;shape=connector;rounded=0;orthogonalLoop=1;jettySize=auto;html=1;strokeColor=default;align=center;verticalAlign=middle;fontFamily=Helvetica;fontSize=11;fontColor=default;labelBackgroundColor=default;startFill=0;endArrow=none;" edge="1" parent="1" source="JOEoy0LniI57_HsHXzFs-134" target="JOEoy0LniI57_HsHXzFs-126">
          <mxGeometry relative="1" as="geometry" />
        </mxCell>
        <mxCell id="JOEoy0LniI57_HsHXzFs-134" value="Fecha" style="ellipse;whiteSpace=wrap;html=1;align=center;fontFamily=Helvetica;fontSize=11;fontColor=default;labelBackgroundColor=default;" vertex="1" parent="1">
          <mxGeometry x="410" y="580" width="100" height="40" as="geometry" />
        </mxCell>
        <mxCell id="JOEoy0LniI57_HsHXzFs-148" style="edgeStyle=orthogonalEdgeStyle;shape=connector;rounded=0;orthogonalLoop=1;jettySize=auto;html=1;exitX=1;exitY=0.5;exitDx=0;exitDy=0;entryX=0;entryY=0.5;entryDx=0;entryDy=0;strokeColor=default;align=center;verticalAlign=middle;fontFamily=Helvetica;fontSize=11;fontColor=default;labelBackgroundColor=default;startFill=0;endArrow=none;" edge="1" parent="1" source="JOEoy0LniI57_HsHXzFs-136" target="JOEoy0LniI57_HsHXzFs-126">
          <mxGeometry relative="1" as="geometry" />
        </mxCell>
        <mxCell id="JOEoy0LniI57_HsHXzFs-136" value="ID_diagnostico" style="ellipse;whiteSpace=wrap;html=1;align=center;fontFamily=Helvetica;fontSize=11;fontColor=default;labelBackgroundColor=default;" vertex="1" parent="1">
          <mxGeometry x="410" y="630" width="100" height="40" as="geometry" />
        </mxCell>
        <mxCell id="JOEoy0LniI57_HsHXzFs-138" value="Fecha" style="ellipse;whiteSpace=wrap;html=1;align=center;fontFamily=Helvetica;fontSize=11;fontColor=default;labelBackgroundColor=default;" vertex="1" parent="1">
          <mxGeometry x="-150" y="55" width="100" height="40" as="geometry" />
        </mxCell>
        <mxCell id="JOEoy0LniI57_HsHXzFs-146" value="Para efectos estéticos, Fecha:" style="text;html=1;align=center;verticalAlign=middle;whiteSpace=wrap;rounded=0;fontFamily=Helvetica;fontSize=11;fontColor=default;labelBackgroundColor=default;" vertex="1" parent="1">
          <mxGeometry x="-160" y="-12.5" width="110" height="65" as="geometry" />
        </mxCell>
        <mxCell id="JOEoy0LniI57_HsHXzFs-157" value="" style="edgeStyle=orthogonalEdgeStyle;shape=connector;rounded=0;orthogonalLoop=1;jettySize=auto;html=1;strokeColor=default;align=center;verticalAlign=middle;fontFamily=Helvetica;fontSize=11;fontColor=default;labelBackgroundColor=default;startFill=0;endArrow=none;" edge="1" parent="1" source="JOEoy0LniI57_HsHXzFs-149" target="JOEoy0LniI57_HsHXzFs-155">
          <mxGeometry relative="1" as="geometry" />
        </mxCell>
        <mxCell id="JOEoy0LniI57_HsHXzFs-149" value="Receta" style="whiteSpace=wrap;html=1;align=center;fontFamily=Helvetica;fontSize=11;fontColor=default;labelBackgroundColor=default;" vertex="1" parent="1">
          <mxGeometry x="570" y="260" width="100" height="40" as="geometry" />
        </mxCell>
        <mxCell id="JOEoy0LniI57_HsHXzFs-151" value="" style="edgeStyle=orthogonalEdgeStyle;shape=connector;rounded=0;orthogonalLoop=1;jettySize=auto;html=1;strokeColor=default;align=center;verticalAlign=middle;fontFamily=Helvetica;fontSize=11;fontColor=default;labelBackgroundColor=default;startFill=0;endArrow=none;" edge="1" parent="1" source="JOEoy0LniI57_HsHXzFs-150" target="JOEoy0LniI57_HsHXzFs-149">
          <mxGeometry relative="1" as="geometry" />
        </mxCell>
        <mxCell id="JOEoy0LniI57_HsHXzFs-150" value="Contiene" style="shape=rhombus;perimeter=rhombusPerimeter;whiteSpace=wrap;html=1;align=center;fontFamily=Helvetica;fontSize=11;fontColor=default;labelBackgroundColor=default;" vertex="1" parent="1">
          <mxGeometry x="560" y="400" width="120" height="60" as="geometry" />
        </mxCell>
        <mxCell id="JOEoy0LniI57_HsHXzFs-159" style="edgeStyle=orthogonalEdgeStyle;shape=connector;rounded=0;orthogonalLoop=1;jettySize=auto;html=1;exitX=1;exitY=0.5;exitDx=0;exitDy=0;entryX=0;entryY=0.5;entryDx=0;entryDy=0;strokeColor=default;align=center;verticalAlign=middle;fontFamily=Helvetica;fontSize=11;fontColor=default;labelBackgroundColor=default;startFill=0;endArrow=none;" edge="1" parent="1" source="JOEoy0LniI57_HsHXzFs-153" target="JOEoy0LniI57_HsHXzFs-149">
          <mxGeometry relative="1" as="geometry" />
        </mxCell>
        <mxCell id="JOEoy0LniI57_HsHXzFs-153" value="Medicamento" style="ellipse;whiteSpace=wrap;html=1;align=center;fontStyle=4;fontFamily=Helvetica;fontSize=11;fontColor=default;labelBackgroundColor=default;" vertex="1" parent="1">
          <mxGeometry x="410" y="185" width="100" height="40" as="geometry" />
        </mxCell>
        <mxCell id="JOEoy0LniI57_HsHXzFs-158" value="" style="edgeStyle=orthogonalEdgeStyle;shape=connector;rounded=0;orthogonalLoop=1;jettySize=auto;html=1;strokeColor=default;align=center;verticalAlign=middle;fontFamily=Helvetica;fontSize=11;fontColor=default;labelBackgroundColor=default;startFill=0;endArrow=none;" edge="1" parent="1" source="JOEoy0LniI57_HsHXzFs-154" target="JOEoy0LniI57_HsHXzFs-149">
          <mxGeometry relative="1" as="geometry" />
        </mxCell>
        <mxCell id="JOEoy0LniI57_HsHXzFs-154" value="Nombre" style="ellipse;whiteSpace=wrap;html=1;align=center;fontFamily=Helvetica;fontSize=11;fontColor=default;labelBackgroundColor=default;" vertex="1" parent="1">
          <mxGeometry x="410" y="235" width="100" height="40" as="geometry" />
        </mxCell>
        <mxCell id="JOEoy0LniI57_HsHXzFs-155" value="Descripción" style="ellipse;whiteSpace=wrap;html=1;align=center;fontFamily=Helvetica;fontSize=11;fontColor=default;labelBackgroundColor=default;" vertex="1" parent="1">
          <mxGeometry x="410" y="285" width="100" height="40" as="geometry" />
        </mxCell>
        <mxCell id="JOEoy0LniI57_HsHXzFs-160" style="edgeStyle=orthogonalEdgeStyle;shape=connector;rounded=0;orthogonalLoop=1;jettySize=auto;html=1;exitX=1;exitY=0.5;exitDx=0;exitDy=0;entryX=0;entryY=0.5;entryDx=0;entryDy=0;strokeColor=default;align=center;verticalAlign=middle;fontFamily=Helvetica;fontSize=11;fontColor=default;labelBackgroundColor=default;startFill=0;endArrow=none;" edge="1" parent="1" source="JOEoy0LniI57_HsHXzFs-156" target="JOEoy0LniI57_HsHXzFs-149">
          <mxGeometry relative="1" as="geometry" />
        </mxCell>
        <mxCell id="JOEoy0LniI57_HsHXzFs-156" value="Stock" style="ellipse;whiteSpace=wrap;html=1;align=center;fontFamily=Helvetica;fontSize=11;fontColor=default;labelBackgroundColor=default;" vertex="1" parent="1">
          <mxGeometry x="410" y="335" width="100" height="40" as="geometry" />
        </mxCell>
        <mxCell id="JOEoy0LniI57_HsHXzFs-161" value="Detalle_Receta" style="whiteSpace=wrap;html=1;align=center;fontFamily=Helvetica;fontSize=11;fontColor=default;labelBackgroundColor=default;" vertex="1" parent="1">
          <mxGeometry x="850" y="260" width="100" height="40" as="geometry" />
        </mxCell>
        <mxCell id="JOEoy0LniI57_HsHXzFs-163" value="" style="edgeStyle=orthogonalEdgeStyle;shape=connector;rounded=0;orthogonalLoop=1;jettySize=auto;html=1;strokeColor=default;align=center;verticalAlign=middle;fontFamily=Helvetica;fontSize=11;fontColor=default;labelBackgroundColor=default;startFill=0;endArrow=none;" edge="1" parent="1" source="JOEoy0LniI57_HsHXzFs-162" target="JOEoy0LniI57_HsHXzFs-149">
          <mxGeometry relative="1" as="geometry" />
        </mxCell>
        <mxCell id="JOEoy0LniI57_HsHXzFs-164" value="" style="edgeStyle=orthogonalEdgeStyle;shape=connector;rounded=0;orthogonalLoop=1;jettySize=auto;html=1;strokeColor=default;align=center;verticalAlign=middle;fontFamily=Helvetica;fontSize=11;fontColor=default;labelBackgroundColor=default;startFill=0;endArrow=none;" edge="1" parent="1" source="JOEoy0LniI57_HsHXzFs-162" target="JOEoy0LniI57_HsHXzFs-161">
          <mxGeometry relative="1" as="geometry" />
        </mxCell>
        <mxCell id="JOEoy0LniI57_HsHXzFs-162" value="Tiene" style="shape=rhombus;perimeter=rhombusPerimeter;whiteSpace=wrap;html=1;align=center;fontFamily=Helvetica;fontSize=11;fontColor=default;labelBackgroundColor=default;" vertex="1" parent="1">
          <mxGeometry x="700" y="250" width="120" height="60" as="geometry" />
        </mxCell>
        <mxCell id="JOEoy0LniI57_HsHXzFs-173" style="edgeStyle=orthogonalEdgeStyle;shape=connector;rounded=0;orthogonalLoop=1;jettySize=auto;html=1;exitX=0;exitY=0.5;exitDx=0;exitDy=0;entryX=1;entryY=0.5;entryDx=0;entryDy=0;strokeColor=default;align=center;verticalAlign=middle;fontFamily=Helvetica;fontSize=11;fontColor=default;labelBackgroundColor=default;startFill=0;endArrow=none;" edge="1" parent="1" source="JOEoy0LniI57_HsHXzFs-165" target="JOEoy0LniI57_HsHXzFs-161">
          <mxGeometry relative="1" as="geometry" />
        </mxCell>
        <mxCell id="JOEoy0LniI57_HsHXzFs-165" value="ID_detalle" style="ellipse;whiteSpace=wrap;html=1;align=center;fontStyle=4;fontFamily=Helvetica;fontSize=11;fontColor=default;labelBackgroundColor=default;" vertex="1" parent="1">
          <mxGeometry x="1010" y="160" width="100" height="40" as="geometry" />
        </mxCell>
        <mxCell id="JOEoy0LniI57_HsHXzFs-171" style="edgeStyle=orthogonalEdgeStyle;shape=connector;rounded=0;orthogonalLoop=1;jettySize=auto;html=1;exitX=0;exitY=0.5;exitDx=0;exitDy=0;entryX=1;entryY=0.5;entryDx=0;entryDy=0;strokeColor=default;align=center;verticalAlign=middle;fontFamily=Helvetica;fontSize=11;fontColor=default;labelBackgroundColor=default;startFill=0;endArrow=none;" edge="1" parent="1" source="JOEoy0LniI57_HsHXzFs-166" target="JOEoy0LniI57_HsHXzFs-161">
          <mxGeometry relative="1" as="geometry" />
        </mxCell>
        <mxCell id="JOEoy0LniI57_HsHXzFs-166" value="ID_receta" style="ellipse;whiteSpace=wrap;html=1;align=center;fontFamily=Helvetica;fontSize=11;fontColor=default;labelBackgroundColor=default;" vertex="1" parent="1">
          <mxGeometry x="1010" y="210" width="100" height="40" as="geometry" />
        </mxCell>
        <mxCell id="JOEoy0LniI57_HsHXzFs-170" value="" style="edgeStyle=orthogonalEdgeStyle;shape=connector;rounded=0;orthogonalLoop=1;jettySize=auto;html=1;strokeColor=default;align=center;verticalAlign=middle;fontFamily=Helvetica;fontSize=11;fontColor=default;labelBackgroundColor=default;startFill=0;endArrow=none;" edge="1" parent="1" source="JOEoy0LniI57_HsHXzFs-167" target="JOEoy0LniI57_HsHXzFs-161">
          <mxGeometry relative="1" as="geometry" />
        </mxCell>
        <mxCell id="JOEoy0LniI57_HsHXzFs-167" value="ID_medicamento" style="ellipse;whiteSpace=wrap;html=1;align=center;fontFamily=Helvetica;fontSize=11;fontColor=default;labelBackgroundColor=default;" vertex="1" parent="1">
          <mxGeometry x="1010" y="260" width="100" height="40" as="geometry" />
        </mxCell>
        <mxCell id="JOEoy0LniI57_HsHXzFs-174" style="edgeStyle=orthogonalEdgeStyle;shape=connector;rounded=0;orthogonalLoop=1;jettySize=auto;html=1;exitX=0;exitY=0.5;exitDx=0;exitDy=0;entryX=1;entryY=0.5;entryDx=0;entryDy=0;strokeColor=default;align=center;verticalAlign=middle;fontFamily=Helvetica;fontSize=11;fontColor=default;labelBackgroundColor=default;startFill=0;endArrow=none;" edge="1" parent="1" source="JOEoy0LniI57_HsHXzFs-168" target="JOEoy0LniI57_HsHXzFs-161">
          <mxGeometry relative="1" as="geometry" />
        </mxCell>
        <mxCell id="JOEoy0LniI57_HsHXzFs-168" value="Dosis" style="ellipse;whiteSpace=wrap;html=1;align=center;fontFamily=Helvetica;fontSize=11;fontColor=default;labelBackgroundColor=default;" vertex="1" parent="1">
          <mxGeometry x="1010" y="310" width="100" height="40" as="geometry" />
        </mxCell>
        <mxCell id="JOEoy0LniI57_HsHXzFs-175" style="edgeStyle=orthogonalEdgeStyle;shape=connector;rounded=0;orthogonalLoop=1;jettySize=auto;html=1;exitX=0;exitY=0.5;exitDx=0;exitDy=0;entryX=1;entryY=0.5;entryDx=0;entryDy=0;strokeColor=default;align=center;verticalAlign=middle;fontFamily=Helvetica;fontSize=11;fontColor=default;labelBackgroundColor=default;startFill=0;endArrow=none;" edge="1" parent="1" source="JOEoy0LniI57_HsHXzFs-169" target="JOEoy0LniI57_HsHXzFs-161">
          <mxGeometry relative="1" as="geometry" />
        </mxCell>
        <mxCell id="JOEoy0LniI57_HsHXzFs-169" value="Frecuencia" style="ellipse;whiteSpace=wrap;html=1;align=center;fontFamily=Helvetica;fontSize=11;fontColor=default;labelBackgroundColor=default;" vertex="1" parent="1">
          <mxGeometry x="1010" y="360" width="100" height="40" as="geometry" />
        </mxCell>
        <mxCell id="JOEoy0LniI57_HsHXzFs-179" value="" style="endArrow=none;dashed=1;html=1;dashPattern=1 3;strokeWidth=1;rounded=0;strokeColor=default;align=center;verticalAlign=middle;fontFamily=Helvetica;fontSize=11;fontColor=default;labelBackgroundColor=default;edgeStyle=orthogonalEdgeStyle;" edge="1" parent="1">
          <mxGeometry width="50" height="50" relative="1" as="geometry">
            <mxPoint x="590" y="500" as="sourcePoint" />
            <mxPoint x="650" y="500" as="targetPoint" />
          </mxGeometry>
        </mxCell>
        <mxCell id="JOEoy0LniI57_HsHXzFs-181" value="" style="endArrow=none;html=1;rounded=0;strokeColor=default;align=center;verticalAlign=middle;fontFamily=Helvetica;fontSize=11;fontColor=default;labelBackgroundColor=default;edgeStyle=orthogonalEdgeStyle;entryX=0;entryY=0.5;entryDx=0;entryDy=0;" edge="1" parent="1" target="JOEoy0LniI57_HsHXzFs-183">
          <mxGeometry relative="1" as="geometry">
            <mxPoint x="650" y="500" as="sourcePoint" />
            <mxPoint x="710" y="500" as="targetPoint" />
          </mxGeometry>
        </mxCell>
        <mxCell id="JOEoy0LniI57_HsHXzFs-191" value="" style="edgeStyle=orthogonalEdgeStyle;shape=connector;rounded=0;orthogonalLoop=1;jettySize=auto;html=1;strokeColor=default;align=center;verticalAlign=middle;fontFamily=Helvetica;fontSize=11;fontColor=default;labelBackgroundColor=default;startFill=0;endArrow=none;" edge="1" parent="1" source="JOEoy0LniI57_HsHXzFs-182" target="JOEoy0LniI57_HsHXzFs-187">
          <mxGeometry relative="1" as="geometry" />
        </mxCell>
        <mxCell id="JOEoy0LniI57_HsHXzFs-193" style="edgeStyle=orthogonalEdgeStyle;shape=connector;rounded=0;orthogonalLoop=1;jettySize=auto;html=1;exitX=1;exitY=0.5;exitDx=0;exitDy=0;entryX=0;entryY=0.5;entryDx=0;entryDy=0;strokeColor=default;align=center;verticalAlign=middle;fontFamily=Helvetica;fontSize=11;fontColor=default;labelBackgroundColor=default;startFill=0;endArrow=none;" edge="1" parent="1" source="JOEoy0LniI57_HsHXzFs-182" target="JOEoy0LniI57_HsHXzFs-185">
          <mxGeometry relative="1" as="geometry" />
        </mxCell>
        <mxCell id="JOEoy0LniI57_HsHXzFs-194" style="edgeStyle=orthogonalEdgeStyle;shape=connector;rounded=0;orthogonalLoop=1;jettySize=auto;html=1;exitX=1;exitY=0.5;exitDx=0;exitDy=0;entryX=0;entryY=0.5;entryDx=0;entryDy=0;strokeColor=default;align=center;verticalAlign=middle;fontFamily=Helvetica;fontSize=11;fontColor=default;labelBackgroundColor=default;startFill=0;endArrow=none;" edge="1" parent="1" source="JOEoy0LniI57_HsHXzFs-182" target="JOEoy0LniI57_HsHXzFs-188">
          <mxGeometry relative="1" as="geometry" />
        </mxCell>
        <mxCell id="JOEoy0LniI57_HsHXzFs-196" style="edgeStyle=orthogonalEdgeStyle;shape=connector;rounded=0;orthogonalLoop=1;jettySize=auto;html=1;exitX=0.5;exitY=1;exitDx=0;exitDy=0;entryX=0.5;entryY=0;entryDx=0;entryDy=0;strokeColor=default;align=center;verticalAlign=middle;fontFamily=Helvetica;fontSize=11;fontColor=default;labelBackgroundColor=default;startFill=0;endArrow=none;" edge="1" parent="1" source="JOEoy0LniI57_HsHXzFs-182" target="JOEoy0LniI57_HsHXzFs-195">
          <mxGeometry relative="1" as="geometry" />
        </mxCell>
        <mxCell id="JOEoy0LniI57_HsHXzFs-182" value="Habitación" style="whiteSpace=wrap;html=1;align=center;fontFamily=Helvetica;fontSize=11;fontColor=default;labelBackgroundColor=default;" vertex="1" parent="1">
          <mxGeometry x="850" y="480" width="100" height="40" as="geometry" />
        </mxCell>
        <mxCell id="JOEoy0LniI57_HsHXzFs-184" value="" style="edgeStyle=orthogonalEdgeStyle;shape=connector;rounded=0;orthogonalLoop=1;jettySize=auto;html=1;strokeColor=default;align=center;verticalAlign=middle;fontFamily=Helvetica;fontSize=11;fontColor=default;labelBackgroundColor=default;startFill=0;endArrow=none;" edge="1" parent="1" source="JOEoy0LniI57_HsHXzFs-183" target="JOEoy0LniI57_HsHXzFs-182">
          <mxGeometry relative="1" as="geometry" />
        </mxCell>
        <mxCell id="JOEoy0LniI57_HsHXzFs-183" value="Tiene" style="shape=rhombus;perimeter=rhombusPerimeter;whiteSpace=wrap;html=1;align=center;fontFamily=Helvetica;fontSize=11;fontColor=default;labelBackgroundColor=default;" vertex="1" parent="1">
          <mxGeometry x="700" y="470" width="120" height="60" as="geometry" />
        </mxCell>
        <mxCell id="JOEoy0LniI57_HsHXzFs-185" value="ID_habitación" style="ellipse;whiteSpace=wrap;html=1;align=center;fontStyle=4;fontFamily=Helvetica;fontSize=11;fontColor=default;labelBackgroundColor=default;" vertex="1" parent="1">
          <mxGeometry x="1010" y="410" width="100" height="40" as="geometry" />
        </mxCell>
        <mxCell id="JOEoy0LniI57_HsHXzFs-192" value="" style="edgeStyle=orthogonalEdgeStyle;shape=connector;rounded=0;orthogonalLoop=1;jettySize=auto;html=1;strokeColor=default;align=center;verticalAlign=middle;fontFamily=Helvetica;fontSize=11;fontColor=default;labelBackgroundColor=default;startFill=0;endArrow=none;" edge="1" parent="1" source="JOEoy0LniI57_HsHXzFs-186" target="JOEoy0LniI57_HsHXzFs-182">
          <mxGeometry relative="1" as="geometry" />
        </mxCell>
        <mxCell id="JOEoy0LniI57_HsHXzFs-186" value="Número" style="ellipse;whiteSpace=wrap;html=1;align=center;fontFamily=Helvetica;fontSize=11;fontColor=default;labelBackgroundColor=default;" vertex="1" parent="1">
          <mxGeometry x="1010" y="460" width="100" height="40" as="geometry" />
        </mxCell>
        <mxCell id="JOEoy0LniI57_HsHXzFs-187" value="Piso" style="ellipse;whiteSpace=wrap;html=1;align=center;fontFamily=Helvetica;fontSize=11;fontColor=default;labelBackgroundColor=default;" vertex="1" parent="1">
          <mxGeometry x="1010" y="510" width="100" height="40" as="geometry" />
        </mxCell>
        <mxCell id="JOEoy0LniI57_HsHXzFs-188" value="Tipo" style="ellipse;whiteSpace=wrap;html=1;align=center;fontFamily=Helvetica;fontSize=11;fontColor=default;labelBackgroundColor=default;" vertex="1" parent="1">
          <mxGeometry x="1010" y="560" width="100" height="40" as="geometry" />
        </mxCell>
        <mxCell id="JOEoy0LniI57_HsHXzFs-198" value="" style="edgeStyle=orthogonalEdgeStyle;shape=connector;rounded=0;orthogonalLoop=1;jettySize=auto;html=1;strokeColor=default;align=center;verticalAlign=middle;fontFamily=Helvetica;fontSize=11;fontColor=default;labelBackgroundColor=default;startFill=0;endArrow=none;" edge="1" parent="1" source="JOEoy0LniI57_HsHXzFs-195" target="JOEoy0LniI57_HsHXzFs-197">
          <mxGeometry relative="1" as="geometry" />
        </mxCell>
        <mxCell id="JOEoy0LniI57_HsHXzFs-195" value="Tiene" style="shape=rhombus;perimeter=rhombusPerimeter;whiteSpace=wrap;html=1;align=center;fontFamily=Helvetica;fontSize=11;fontColor=default;labelBackgroundColor=default;" vertex="1" parent="1">
          <mxGeometry x="840" y="640" width="120" height="60" as="geometry" />
        </mxCell>
        <mxCell id="JOEoy0LniI57_HsHXzFs-204" value="" style="edgeStyle=orthogonalEdgeStyle;shape=connector;rounded=0;orthogonalLoop=1;jettySize=auto;html=1;strokeColor=default;align=center;verticalAlign=middle;fontFamily=Helvetica;fontSize=11;fontColor=default;labelBackgroundColor=default;startFill=0;endArrow=none;" edge="1" parent="1" source="JOEoy0LniI57_HsHXzFs-197" target="JOEoy0LniI57_HsHXzFs-202">
          <mxGeometry relative="1" as="geometry" />
        </mxCell>
        <mxCell id="JOEoy0LniI57_HsHXzFs-197" value="Ingreso_Hospitalario" style="whiteSpace=wrap;html=1;align=center;fontFamily=Helvetica;fontSize=11;fontColor=default;labelBackgroundColor=default;" vertex="1" parent="1">
          <mxGeometry x="850" y="820" width="100" height="40" as="geometry" />
        </mxCell>
        <mxCell id="JOEoy0LniI57_HsHXzFs-206" style="edgeStyle=orthogonalEdgeStyle;shape=connector;rounded=0;orthogonalLoop=1;jettySize=auto;html=1;exitX=0;exitY=0.5;exitDx=0;exitDy=0;entryX=1;entryY=0.5;entryDx=0;entryDy=0;strokeColor=default;align=center;verticalAlign=middle;fontFamily=Helvetica;fontSize=11;fontColor=default;labelBackgroundColor=default;startFill=0;endArrow=none;" edge="1" parent="1" source="JOEoy0LniI57_HsHXzFs-199" target="JOEoy0LniI57_HsHXzFs-197">
          <mxGeometry relative="1" as="geometry" />
        </mxCell>
        <mxCell id="JOEoy0LniI57_HsHXzFs-199" value="ID_ingreso" style="ellipse;whiteSpace=wrap;html=1;align=center;fontStyle=4;fontFamily=Helvetica;fontSize=11;fontColor=default;labelBackgroundColor=default;" vertex="1" parent="1">
          <mxGeometry x="1020" y="720" width="100" height="40" as="geometry" />
        </mxCell>
        <mxCell id="JOEoy0LniI57_HsHXzFs-205" style="edgeStyle=orthogonalEdgeStyle;shape=connector;rounded=0;orthogonalLoop=1;jettySize=auto;html=1;exitX=0;exitY=0.5;exitDx=0;exitDy=0;entryX=1;entryY=0.5;entryDx=0;entryDy=0;strokeColor=default;align=center;verticalAlign=middle;fontFamily=Helvetica;fontSize=11;fontColor=default;labelBackgroundColor=default;startFill=0;endArrow=none;" edge="1" parent="1" source="JOEoy0LniI57_HsHXzFs-200" target="JOEoy0LniI57_HsHXzFs-197">
          <mxGeometry relative="1" as="geometry" />
        </mxCell>
        <mxCell id="JOEoy0LniI57_HsHXzFs-200" value="Fecha_ingreso" style="ellipse;whiteSpace=wrap;html=1;align=center;fontFamily=Helvetica;fontSize=11;fontColor=default;labelBackgroundColor=default;" vertex="1" parent="1">
          <mxGeometry x="1020" y="770" width="100" height="40" as="geometry" />
        </mxCell>
        <mxCell id="JOEoy0LniI57_HsHXzFs-201" value="Fecha_salida" style="ellipse;whiteSpace=wrap;html=1;align=center;fontFamily=Helvetica;fontSize=11;fontColor=default;labelBackgroundColor=default;" vertex="1" parent="1">
          <mxGeometry x="1020" y="820" width="100" height="40" as="geometry" />
        </mxCell>
        <mxCell id="JOEoy0LniI57_HsHXzFs-207" style="edgeStyle=orthogonalEdgeStyle;shape=connector;rounded=0;orthogonalLoop=1;jettySize=auto;html=1;exitX=0;exitY=0.5;exitDx=0;exitDy=0;entryX=1;entryY=0.5;entryDx=0;entryDy=0;strokeColor=default;align=center;verticalAlign=middle;fontFamily=Helvetica;fontSize=11;fontColor=default;labelBackgroundColor=default;startFill=0;endArrow=none;" edge="1" parent="1" source="JOEoy0LniI57_HsHXzFs-202" target="JOEoy0LniI57_HsHXzFs-197">
          <mxGeometry relative="1" as="geometry" />
        </mxCell>
        <mxCell id="JOEoy0LniI57_HsHXzFs-202" value="ID_paciente" style="ellipse;whiteSpace=wrap;html=1;align=center;fontFamily=Helvetica;fontSize=11;fontColor=default;labelBackgroundColor=default;" vertex="1" parent="1">
          <mxGeometry x="1020" y="870" width="100" height="40" as="geometry" />
        </mxCell>
        <mxCell id="JOEoy0LniI57_HsHXzFs-208" style="edgeStyle=orthogonalEdgeStyle;shape=connector;rounded=0;orthogonalLoop=1;jettySize=auto;html=1;exitX=0;exitY=0.5;exitDx=0;exitDy=0;entryX=1;entryY=0.5;entryDx=0;entryDy=0;strokeColor=default;align=center;verticalAlign=middle;fontFamily=Helvetica;fontSize=11;fontColor=default;labelBackgroundColor=default;startFill=0;endArrow=none;" edge="1" parent="1" source="JOEoy0LniI57_HsHXzFs-203" target="JOEoy0LniI57_HsHXzFs-197">
          <mxGeometry relative="1" as="geometry" />
        </mxCell>
        <mxCell id="JOEoy0LniI57_HsHXzFs-203" value="ID_habitación" style="ellipse;whiteSpace=wrap;html=1;align=center;fontFamily=Helvetica;fontSize=11;fontColor=default;labelBackgroundColor=default;" vertex="1" parent="1">
          <mxGeometry x="1020" y="920" width="100" height="40" as="geometry" />
        </mxCell>
        <mxCell id="JOEoy0LniI57_HsHXzFs-210" value="" style="endArrow=none;dashed=1;html=1;dashPattern=1 3;strokeWidth=1;rounded=0;strokeColor=default;align=center;verticalAlign=middle;fontFamily=Helvetica;fontSize=11;fontColor=default;labelBackgroundColor=default;edgeStyle=orthogonalEdgeStyle;" edge="1" parent="1">
          <mxGeometry width="50" height="50" relative="1" as="geometry">
            <mxPoint x="690" y="159.39" as="sourcePoint" />
            <mxPoint x="690" y="90" as="targetPoint" />
          </mxGeometry>
        </mxCell>
        <mxCell id="JOEoy0LniI57_HsHXzFs-211" style="edgeStyle=orthogonalEdgeStyle;shape=connector;rounded=0;orthogonalLoop=1;jettySize=auto;html=1;strokeColor=default;align=center;verticalAlign=middle;fontFamily=Helvetica;fontSize=11;fontColor=default;labelBackgroundColor=default;startFill=0;endArrow=none;entryX=0.5;entryY=1;entryDx=0;entryDy=0;" edge="1" parent="1" target="JOEoy0LniI57_HsHXzFs-212">
          <mxGeometry relative="1" as="geometry">
            <mxPoint x="690" y="-40" as="targetPoint" />
            <mxPoint x="690" y="90" as="sourcePoint" />
            <Array as="points" />
          </mxGeometry>
        </mxCell>
        <mxCell id="JOEoy0LniI57_HsHXzFs-214" value="" style="edgeStyle=orthogonalEdgeStyle;shape=connector;rounded=0;orthogonalLoop=1;jettySize=auto;html=1;strokeColor=default;align=center;verticalAlign=middle;fontFamily=Helvetica;fontSize=11;fontColor=default;labelBackgroundColor=default;startFill=0;endArrow=none;" edge="1" parent="1" source="JOEoy0LniI57_HsHXzFs-212" target="JOEoy0LniI57_HsHXzFs-213">
          <mxGeometry relative="1" as="geometry" />
        </mxCell>
        <mxCell id="JOEoy0LniI57_HsHXzFs-212" value="Pertenecen" style="shape=rhombus;perimeter=rhombusPerimeter;whiteSpace=wrap;html=1;align=center;fontFamily=Helvetica;fontSize=11;fontColor=default;labelBackgroundColor=default;" vertex="1" parent="1">
          <mxGeometry x="630" y="-80" width="120" height="60" as="geometry" />
        </mxCell>
        <mxCell id="JOEoy0LniI57_HsHXzFs-220" value="" style="edgeStyle=orthogonalEdgeStyle;shape=connector;rounded=0;orthogonalLoop=1;jettySize=auto;html=1;strokeColor=default;align=center;verticalAlign=middle;fontFamily=Helvetica;fontSize=11;fontColor=default;labelBackgroundColor=default;startFill=0;endArrow=none;" edge="1" parent="1" source="JOEoy0LniI57_HsHXzFs-213" target="JOEoy0LniI57_HsHXzFs-218">
          <mxGeometry relative="1" as="geometry" />
        </mxCell>
        <mxCell id="JOEoy0LniI57_HsHXzFs-213" value="Turno" style="whiteSpace=wrap;html=1;align=center;fontFamily=Helvetica;fontSize=11;fontColor=default;labelBackgroundColor=default;" vertex="1" parent="1">
          <mxGeometry x="640" y="-210" width="100" height="40" as="geometry" />
        </mxCell>
        <mxCell id="JOEoy0LniI57_HsHXzFs-221" style="edgeStyle=orthogonalEdgeStyle;shape=connector;rounded=0;orthogonalLoop=1;jettySize=auto;html=1;exitX=1;exitY=0.5;exitDx=0;exitDy=0;entryX=0;entryY=0.5;entryDx=0;entryDy=0;strokeColor=default;align=center;verticalAlign=middle;fontFamily=Helvetica;fontSize=11;fontColor=default;labelBackgroundColor=default;startFill=0;endArrow=none;" edge="1" parent="1" source="JOEoy0LniI57_HsHXzFs-215" target="JOEoy0LniI57_HsHXzFs-213">
          <mxGeometry relative="1" as="geometry" />
        </mxCell>
        <mxCell id="JOEoy0LniI57_HsHXzFs-215" value="ID_turno" style="ellipse;whiteSpace=wrap;html=1;align=center;fontStyle=4;fontFamily=Helvetica;fontSize=11;fontColor=default;labelBackgroundColor=default;" vertex="1" parent="1">
          <mxGeometry x="480" y="-310" width="100" height="40" as="geometry" />
        </mxCell>
        <mxCell id="JOEoy0LniI57_HsHXzFs-222" style="edgeStyle=orthogonalEdgeStyle;shape=connector;rounded=0;orthogonalLoop=1;jettySize=auto;html=1;exitX=1;exitY=0.5;exitDx=0;exitDy=0;entryX=0;entryY=0.5;entryDx=0;entryDy=0;strokeColor=default;align=center;verticalAlign=middle;fontFamily=Helvetica;fontSize=11;fontColor=default;labelBackgroundColor=default;startFill=0;endArrow=none;" edge="1" parent="1" source="JOEoy0LniI57_HsHXzFs-216" target="JOEoy0LniI57_HsHXzFs-213">
          <mxGeometry relative="1" as="geometry" />
        </mxCell>
        <mxCell id="JOEoy0LniI57_HsHXzFs-216" value="Fecha" style="ellipse;whiteSpace=wrap;html=1;align=center;fontFamily=Helvetica;fontSize=11;fontColor=default;labelBackgroundColor=default;" vertex="1" parent="1">
          <mxGeometry x="480" y="-260" width="100" height="40" as="geometry" />
        </mxCell>
        <mxCell id="JOEoy0LniI57_HsHXzFs-217" value="Hora_inicio" style="ellipse;whiteSpace=wrap;html=1;align=center;fontFamily=Helvetica;fontSize=11;fontColor=default;labelBackgroundColor=default;" vertex="1" parent="1">
          <mxGeometry x="480" y="-210" width="100" height="40" as="geometry" />
        </mxCell>
        <mxCell id="JOEoy0LniI57_HsHXzFs-223" style="edgeStyle=orthogonalEdgeStyle;shape=connector;rounded=0;orthogonalLoop=1;jettySize=auto;html=1;exitX=1;exitY=0.5;exitDx=0;exitDy=0;entryX=0;entryY=0.5;entryDx=0;entryDy=0;strokeColor=default;align=center;verticalAlign=middle;fontFamily=Helvetica;fontSize=11;fontColor=default;labelBackgroundColor=default;startFill=0;endArrow=none;" edge="1" parent="1" source="JOEoy0LniI57_HsHXzFs-218" target="JOEoy0LniI57_HsHXzFs-213">
          <mxGeometry relative="1" as="geometry" />
        </mxCell>
        <mxCell id="JOEoy0LniI57_HsHXzFs-218" value="Hora_fin" style="ellipse;whiteSpace=wrap;html=1;align=center;fontFamily=Helvetica;fontSize=11;fontColor=default;labelBackgroundColor=default;" vertex="1" parent="1">
          <mxGeometry x="480" y="-160" width="100" height="40" as="geometry" />
        </mxCell>
        <mxCell id="JOEoy0LniI57_HsHXzFs-224" style="edgeStyle=orthogonalEdgeStyle;shape=connector;rounded=0;orthogonalLoop=1;jettySize=auto;html=1;exitX=1;exitY=0.5;exitDx=0;exitDy=0;entryX=0;entryY=0.5;entryDx=0;entryDy=0;strokeColor=default;align=center;verticalAlign=middle;fontFamily=Helvetica;fontSize=11;fontColor=default;labelBackgroundColor=default;startFill=0;endArrow=none;" edge="1" parent="1" source="JOEoy0LniI57_HsHXzFs-219" target="JOEoy0LniI57_HsHXzFs-213">
          <mxGeometry relative="1" as="geometry" />
        </mxCell>
        <mxCell id="JOEoy0LniI57_HsHXzFs-219" value="ID_médico" style="ellipse;whiteSpace=wrap;html=1;align=center;fontFamily=Helvetica;fontSize=11;fontColor=default;labelBackgroundColor=default;" vertex="1" parent="1">
          <mxGeometry x="480" y="-110" width="100" height="40" as="geometry" />
        </mxCell>
        <mxCell id="JOEoy0LniI57_HsHXzFs-226" value="" style="endArrow=none;dashed=1;html=1;dashPattern=1 3;strokeWidth=1;rounded=0;strokeColor=default;align=center;verticalAlign=middle;fontFamily=Helvetica;fontSize=11;fontColor=default;labelBackgroundColor=default;edgeStyle=orthogonalEdgeStyle;" edge="1" parent="1">
          <mxGeometry width="50" height="50" relative="1" as="geometry">
            <mxPoint x="380" y="940" as="sourcePoint" />
            <mxPoint x="380" y="860" as="targetPoint" />
          </mxGeometry>
        </mxCell>
        <mxCell id="JOEoy0LniI57_HsHXzFs-227" style="edgeStyle=orthogonalEdgeStyle;shape=connector;rounded=0;orthogonalLoop=1;jettySize=auto;html=1;strokeColor=default;align=center;verticalAlign=middle;fontFamily=Helvetica;fontSize=11;fontColor=default;labelBackgroundColor=default;startFill=0;endArrow=none;entryX=0.5;entryY=0;entryDx=0;entryDy=0;" edge="1" parent="1" target="JOEoy0LniI57_HsHXzFs-228">
          <mxGeometry relative="1" as="geometry">
            <mxPoint x="380" y="1010" as="targetPoint" />
            <mxPoint x="380" y="935" as="sourcePoint" />
          </mxGeometry>
        </mxCell>
        <mxCell id="JOEoy0LniI57_HsHXzFs-228" value="Tiene" style="shape=rhombus;perimeter=rhombusPerimeter;whiteSpace=wrap;html=1;align=center;fontFamily=Helvetica;fontSize=11;fontColor=default;labelBackgroundColor=default;" vertex="1" parent="1">
          <mxGeometry x="320" y="985" width="120" height="60" as="geometry" />
        </mxCell>
        <mxCell id="JOEoy0LniI57_HsHXzFs-231" value="" style="edgeStyle=orthogonalEdgeStyle;shape=connector;rounded=0;orthogonalLoop=1;jettySize=auto;html=1;strokeColor=default;align=center;verticalAlign=middle;fontFamily=Helvetica;fontSize=11;fontColor=default;labelBackgroundColor=default;startFill=0;endArrow=none;" edge="1" parent="1" source="JOEoy0LniI57_HsHXzFs-230" target="JOEoy0LniI57_HsHXzFs-228">
          <mxGeometry relative="1" as="geometry" />
        </mxCell>
        <mxCell id="JOEoy0LniI57_HsHXzFs-230" value="Exámen" style="whiteSpace=wrap;html=1;align=center;fontFamily=Helvetica;fontSize=11;fontColor=default;labelBackgroundColor=default;" vertex="1" parent="1">
          <mxGeometry x="330" y="1110" width="100" height="40" as="geometry" />
        </mxCell>
        <mxCell id="JOEoy0LniI57_HsHXzFs-237" style="edgeStyle=orthogonalEdgeStyle;shape=connector;rounded=0;orthogonalLoop=1;jettySize=auto;html=1;exitX=1;exitY=0.5;exitDx=0;exitDy=0;entryX=0;entryY=0.5;entryDx=0;entryDy=0;strokeColor=default;align=center;verticalAlign=middle;fontFamily=Helvetica;fontSize=11;fontColor=default;labelBackgroundColor=default;startFill=0;endArrow=none;" edge="1" parent="1" source="JOEoy0LniI57_HsHXzFs-232" target="JOEoy0LniI57_HsHXzFs-230">
          <mxGeometry relative="1" as="geometry" />
        </mxCell>
        <mxCell id="JOEoy0LniI57_HsHXzFs-232" value="ID_exámen" style="ellipse;whiteSpace=wrap;html=1;align=center;fontStyle=4;fontFamily=Helvetica;fontSize=11;fontColor=default;labelBackgroundColor=default;" vertex="1" parent="1">
          <mxGeometry x="170" y="1035" width="100" height="40" as="geometry" />
        </mxCell>
        <mxCell id="JOEoy0LniI57_HsHXzFs-238" style="edgeStyle=orthogonalEdgeStyle;shape=connector;rounded=0;orthogonalLoop=1;jettySize=auto;html=1;exitX=1;exitY=0.5;exitDx=0;exitDy=0;entryX=0;entryY=0.5;entryDx=0;entryDy=0;strokeColor=default;align=center;verticalAlign=middle;fontFamily=Helvetica;fontSize=11;fontColor=default;labelBackgroundColor=default;startFill=0;endArrow=none;" edge="1" parent="1" source="JOEoy0LniI57_HsHXzFs-233" target="JOEoy0LniI57_HsHXzFs-230">
          <mxGeometry relative="1" as="geometry" />
        </mxCell>
        <mxCell id="JOEoy0LniI57_HsHXzFs-233" value="Nombre" style="ellipse;whiteSpace=wrap;html=1;align=center;fontFamily=Helvetica;fontSize=11;fontColor=default;labelBackgroundColor=default;" vertex="1" parent="1">
          <mxGeometry x="170" y="1085" width="100" height="40" as="geometry" />
        </mxCell>
        <mxCell id="JOEoy0LniI57_HsHXzFs-239" style="edgeStyle=orthogonalEdgeStyle;shape=connector;rounded=0;orthogonalLoop=1;jettySize=auto;html=1;exitX=1;exitY=0.5;exitDx=0;exitDy=0;entryX=0;entryY=0.5;entryDx=0;entryDy=0;strokeColor=default;align=center;verticalAlign=middle;fontFamily=Helvetica;fontSize=11;fontColor=default;labelBackgroundColor=default;startFill=0;endArrow=none;" edge="1" parent="1" source="JOEoy0LniI57_HsHXzFs-234" target="JOEoy0LniI57_HsHXzFs-230">
          <mxGeometry relative="1" as="geometry" />
        </mxCell>
        <mxCell id="JOEoy0LniI57_HsHXzFs-234" value="Tipo" style="ellipse;whiteSpace=wrap;html=1;align=center;fontFamily=Helvetica;fontSize=11;fontColor=default;labelBackgroundColor=default;" vertex="1" parent="1">
          <mxGeometry x="170" y="1135" width="100" height="40" as="geometry" />
        </mxCell>
        <mxCell id="JOEoy0LniI57_HsHXzFs-240" style="edgeStyle=orthogonalEdgeStyle;shape=connector;rounded=0;orthogonalLoop=1;jettySize=auto;html=1;exitX=1;exitY=0.5;exitDx=0;exitDy=0;entryX=0;entryY=0.5;entryDx=0;entryDy=0;strokeColor=default;align=center;verticalAlign=middle;fontFamily=Helvetica;fontSize=11;fontColor=default;labelBackgroundColor=default;startFill=0;endArrow=none;" edge="1" parent="1" source="JOEoy0LniI57_HsHXzFs-235" target="JOEoy0LniI57_HsHXzFs-230">
          <mxGeometry relative="1" as="geometry" />
        </mxCell>
        <mxCell id="JOEoy0LniI57_HsHXzFs-235" value="ID_cita" style="ellipse;whiteSpace=wrap;html=1;align=center;fontFamily=Helvetica;fontSize=11;fontColor=default;labelBackgroundColor=default;" vertex="1" parent="1">
          <mxGeometry x="170" y="1185" width="100" height="40" as="geometry" />
        </mxCell>
        <mxCell id="JOEoy0LniI57_HsHXzFs-242" value="" style="edgeStyle=orthogonalEdgeStyle;shape=connector;rounded=0;orthogonalLoop=1;jettySize=auto;html=1;strokeColor=default;align=center;verticalAlign=middle;fontFamily=Helvetica;fontSize=11;fontColor=default;labelBackgroundColor=default;startFill=0;endArrow=none;" edge="1" parent="1" source="JOEoy0LniI57_HsHXzFs-241" target="JOEoy0LniI57_HsHXzFs-230">
          <mxGeometry relative="1" as="geometry" />
        </mxCell>
        <mxCell id="JOEoy0LniI57_HsHXzFs-244" value="" style="edgeStyle=orthogonalEdgeStyle;shape=connector;rounded=0;orthogonalLoop=1;jettySize=auto;html=1;strokeColor=default;align=center;verticalAlign=middle;fontFamily=Helvetica;fontSize=11;fontColor=default;labelBackgroundColor=default;startFill=0;endArrow=none;" edge="1" parent="1" source="JOEoy0LniI57_HsHXzFs-241" target="JOEoy0LniI57_HsHXzFs-243">
          <mxGeometry relative="1" as="geometry" />
        </mxCell>
        <mxCell id="JOEoy0LniI57_HsHXzFs-241" value="Tiene" style="shape=rhombus;perimeter=rhombusPerimeter;whiteSpace=wrap;html=1;align=center;fontFamily=Helvetica;fontSize=11;fontColor=default;labelBackgroundColor=default;" vertex="1" parent="1">
          <mxGeometry x="490" y="1100" width="120" height="60" as="geometry" />
        </mxCell>
        <mxCell id="JOEoy0LniI57_HsHXzFs-243" value="Resultado_Exámen" style="whiteSpace=wrap;html=1;align=center;fontFamily=Helvetica;fontSize=11;fontColor=default;labelBackgroundColor=default;" vertex="1" parent="1">
          <mxGeometry x="670" y="1110" width="100" height="40" as="geometry" />
        </mxCell>
        <mxCell id="JOEoy0LniI57_HsHXzFs-249" style="edgeStyle=orthogonalEdgeStyle;shape=connector;rounded=0;orthogonalLoop=1;jettySize=auto;html=1;exitX=0;exitY=0.5;exitDx=0;exitDy=0;entryX=1;entryY=0.5;entryDx=0;entryDy=0;strokeColor=default;align=center;verticalAlign=middle;fontFamily=Helvetica;fontSize=11;fontColor=default;labelBackgroundColor=default;startFill=0;endArrow=none;" edge="1" parent="1" source="JOEoy0LniI57_HsHXzFs-245" target="JOEoy0LniI57_HsHXzFs-243">
          <mxGeometry relative="1" as="geometry" />
        </mxCell>
        <mxCell id="JOEoy0LniI57_HsHXzFs-245" value="ID_resultado" style="ellipse;whiteSpace=wrap;html=1;align=center;fontStyle=4;fontFamily=Helvetica;fontSize=11;fontColor=default;labelBackgroundColor=default;" vertex="1" parent="1">
          <mxGeometry x="830" y="1045" width="100" height="40" as="geometry" />
        </mxCell>
        <mxCell id="JOEoy0LniI57_HsHXzFs-250" style="edgeStyle=orthogonalEdgeStyle;shape=connector;rounded=0;orthogonalLoop=1;jettySize=auto;html=1;exitX=0;exitY=0.5;exitDx=0;exitDy=0;entryX=1;entryY=0.5;entryDx=0;entryDy=0;strokeColor=default;align=center;verticalAlign=middle;fontFamily=Helvetica;fontSize=11;fontColor=default;labelBackgroundColor=default;startFill=0;endArrow=none;" edge="1" parent="1" source="JOEoy0LniI57_HsHXzFs-246" target="JOEoy0LniI57_HsHXzFs-243">
          <mxGeometry relative="1" as="geometry" />
        </mxCell>
        <mxCell id="JOEoy0LniI57_HsHXzFs-246" value="ID_exámen" style="ellipse;whiteSpace=wrap;html=1;align=center;fontFamily=Helvetica;fontSize=11;fontColor=default;labelBackgroundColor=default;" vertex="1" parent="1">
          <mxGeometry x="830" y="1095" width="100" height="40" as="geometry" />
        </mxCell>
        <mxCell id="JOEoy0LniI57_HsHXzFs-251" style="edgeStyle=orthogonalEdgeStyle;shape=connector;rounded=0;orthogonalLoop=1;jettySize=auto;html=1;exitX=0;exitY=0.5;exitDx=0;exitDy=0;entryX=1;entryY=0.5;entryDx=0;entryDy=0;strokeColor=default;align=center;verticalAlign=middle;fontFamily=Helvetica;fontSize=11;fontColor=default;labelBackgroundColor=default;startFill=0;endArrow=none;" edge="1" parent="1" source="JOEoy0LniI57_HsHXzFs-247" target="JOEoy0LniI57_HsHXzFs-243">
          <mxGeometry relative="1" as="geometry" />
        </mxCell>
        <mxCell id="JOEoy0LniI57_HsHXzFs-247" value="Resultado" style="ellipse;whiteSpace=wrap;html=1;align=center;fontFamily=Helvetica;fontSize=11;fontColor=default;labelBackgroundColor=default;" vertex="1" parent="1">
          <mxGeometry x="830" y="1145" width="100" height="40" as="geometry" />
        </mxCell>
        <mxCell id="JOEoy0LniI57_HsHXzFs-252" style="edgeStyle=orthogonalEdgeStyle;shape=connector;rounded=0;orthogonalLoop=1;jettySize=auto;html=1;exitX=0;exitY=0.5;exitDx=0;exitDy=0;entryX=1;entryY=0.5;entryDx=0;entryDy=0;strokeColor=default;align=center;verticalAlign=middle;fontFamily=Helvetica;fontSize=11;fontColor=default;labelBackgroundColor=default;startFill=0;endArrow=none;" edge="1" parent="1" source="JOEoy0LniI57_HsHXzFs-248" target="JOEoy0LniI57_HsHXzFs-243">
          <mxGeometry relative="1" as="geometry" />
        </mxCell>
        <mxCell id="JOEoy0LniI57_HsHXzFs-248" value="Fecha" style="ellipse;whiteSpace=wrap;html=1;align=center;fontFamily=Helvetica;fontSize=11;fontColor=default;labelBackgroundColor=default;" vertex="1" parent="1">
          <mxGeometry x="830" y="1195" width="100" height="40" as="geometry" />
        </mxCell>
      </root>
    </mxGraphModel>
  </diagram>
</mxfile>
